<?xml version="1.0" encoding="UTF-8"?>
<!-- Generator: visioncortex VTracer -->
<svg id="svg" version="1.1" xmlns="http://www.w3.org/2000/svg" viewBox="0 0 1531 316" style="display: block;"><path d="M0 0 C84.55079787 0 84.55079787 0 96.25 11.0859375 C105.8292992 21.563296 107.21691118 34.27859794 107.29516602 47.90771484 C107.30660421 49.28835363 107.32692461 50.66895111 107.35668945 52.04931641 C107.56600763 61.78553522 107.62687414 73.02402823 101.38232422 81.08935547 C97.36135197 85.02277933 92.35268364 86.61631307 87 88 C88.08667969 88.52787109 88.08667969 88.52787109 89.1953125 89.06640625 C97.80868862 93.46497032 103.03444218 97.41201032 106.37548828 106.68603516 C107.51379687 110.90373994 107.57692637 115.15287688 107.6875 119.5 C107.72166016 120.4178125 107.75582031 121.335625 107.79101562 122.28125 C107.87266264 124.5207109 107.94207538 126.7598215 108 129 C108.78375 128.814375 109.5675 128.62875 110.375 128.4375 C113 128 113 128 115 129 C115 130.32 115 131.64 115 133 C115.556875 132.649375 116.11375 132.29875 116.6875 131.9375 C119.6168682 130.7499183 121.02608955 131.00869652 124 132 C126.02142055 133.51606541 126.8392968 134.58485006 127.75 136.9375 C128.02718405 139.22426843 127.60690073 140.79998486 127 143 C127.33 143.33 127.66 143.66 128 144 C128.04063832 145.66617115 128.042721 147.33388095 128 149 C126.68 149.33 125.36 149.66 124 150 C123.22757731 151.83700789 123.22757731 151.83700789 123 154 C124.08333333 155.91666667 124.08333333 155.91666667 126 157 C127.32 156.67 128.64 156.34 130 156 C130.33 153.03 130.66 150.06 131 147 C138.5 143.47058824 138.5 143.47058824 143 144 C144 145 144 145 144.25 147.375 C144 150 144 150 142.5 151.8125 C141.7575 152.4003125 141.7575 152.4003125 141 153 C141.99 156.465 141.99 156.465 143 160 C141.375 162.0625 141.375 162.0625 139 164 C135.75 163.75 135.75 163.75 133 163 C133 163.66 133 164.32 133 165 C134.1446875 165.1546875 134.1446875 165.1546875 135.3125 165.3125 C138 166 138 166 139.5 167.5625 C140.97035365 169.28658141 140.97035365 169.28658141 143.625 169.125 C144.40875 169.08375 145.1925 169.0425 146 169 C147 170 147 170 147.25 172.4375 C147.1675 173.283125 147.085 174.12875 147 175 C146.01 175.66 145.02 176.32 144 177 C144.33 177.33 144.66 177.66 145 178 C145.36760731 180.32817964 145.70241581 182.6618385 146 185 C147.65 185.66 149.3 186.32 151 187 C150.67 188.65 150.34 190.3 150 192 C146.34543185 192.75241109 142.68266103 193.40049704 139 194 C138.67 195.32 138.34 196.64 138 198 C136.68 198 135.36 198 134 198 C133.67 199.32 133.34 200.64 133 202 C130.6875 202.6875 130.6875 202.6875 128 203 C126.1875 201.5625 126.1875 201.5625 125 200 C125.33 199.01 125.66 198.02 126 197 C128.64 197 131.28 197 134 197 C134 196.01 134 195.02 134 194 C135.32 193.67 136.64 193.34 138 193 C139.67863973 187.12476095 139.83801066 181.2346951 137.6875 175.5 C135.29641359 171.95764977 133.45756345 171.10857438 129.3125 170.125 C125.01457755 169.64039137 122.32383183 170.93918249 118.6640625 173.08984375 C117 174 117 174 115 174 C114.93941406 175.12019531 114.87882812 176.24039063 114.81640625 177.39453125 C114.73198576 178.86719984 114.64733851 180.33985544 114.5625 181.8125 C114.52318359 182.55048828 114.48386719 183.28847656 114.44335938 184.04882812 C114.25618965 187.23071342 114.01279207 189.96162378 113 193 C109.83884224 191.63016497 109.0072908 191.0109362 107 188 C106.64970128 191.399195 106.46604321 194.61471396 107 198 C109.77616548 200.46213695 109.77616548 200.46213695 113 202 C114.8117042 204.44186218 115.02324987 205.52337764 114.875 208.5625 C113.7872123 211.59276574 112.87308245 212.56345877 110 214 C107.2298906 213.86487271 105.61855984 213.45311371 103.37890625 211.8125 C101.44261222 209.26734298 101.59475253 207.29131356 101.5 204.125 C101.35933957 199.44804064 100.55958509 196.90745171 98 193 C98 192.34 98 191.68 98 191 C97.34 191 96.68 191 96 191 C96 190.34 96 189.68 96 189 C95.34 189.33 94.68 189.66 94 190 C94 192.64 94 195.28 94 198 C92.02 198.99 92.02 198.99 90 200 C89.38125 199.175 88.7625 198.35 88.125 197.5 C87.42375 196.675 86.7225 195.85 86 195 C85.34 195 84.68 195 84 195 C81.99910117 199.23719753 82.00805288 202.45373006 82.5 207 C82.98522794 211.54195919 83.0500754 214.78595613 81 219 C80 220 80 220 76.5625 220.1875 C73 220 73 220 71 218 C70.30758492 210.96044672 70.30758492 210.96044672 72.9375 207.3125 C73.618125 206.549375 74.29875 205.78625 75 205 C75.78946609 202.31492671 75.78946609 202.31492671 76 200 C75.443125 200.0721875 74.88625 200.144375 74.3125 200.21875 C70.38304763 200.69665637 66.58579086 201.04793097 62.625 200.9375 C58.90193585 200.67517806 58.90193585 200.67517806 56 203 C55.566875 204.175625 55.13375 205.35125 54.6875 206.5625 C54.130625 207.696875 53.57375 208.83125 53 210 C49.875 211 49.875 211 47 211 C46 210 46 210 45.6875 207.125 C46 204 46 204 47.8125 202.125 C50 201 50 201 53 201 C53 199.68 53 198.36 53 197 C53.598125 196.731875 54.19625 196.46375 54.8125 196.1875 C57.05510787 195.1305255 57.05510787 195.1305255 58.5 193.3125 C58.995 192.879375 59.49 192.44625 60 192 C61.8125 192.1875 61.8125 192.1875 64 193 C68.44630363 194.81629209 68.44630363 194.81629209 73 194 C72.505 191.525 72.505 191.525 72 189 C70.906875 189.165 69.81375 189.33 68.6875 189.5 C65 190 65 190 62 190 C62.66 187.69 63.32 185.38 64 183 C63.34 183 62.68 183 62 183 C62.00523682 182.09797852 62.01047363 181.19595703 62.01586914 180.26660156 C62.10001815 163.35584587 62.09408387 146.44852244 61.68161011 129.54162598 C61.64410268 127.98188307 61.60966032 126.42206322 61.57839966 124.86218262 C61.53313342 122.67208597 61.47545498 120.4826657 61.4140625 118.29296875 C61.3826416 117.0505542 61.3512207 115.80813965 61.31884766 114.52807617 C60.87818965 109.07840599 60.87818965 109.07840599 59 104 C55.7 103.01 52.4 102.02 49 101 C49 128.39 49 155.78 49 184 C47.68 184 46.36 184 45 184 C44.67 183.34 44.34 182.68 44 182 C43.67 182.66 43.34 183.32 43 184 C28.81 184 14.62 184 0 184 C0 123.28 0 62.56 0 0 Z M49 32 C49 49.49 49 66.98 49 85 C52.77667162 83.11166419 54.34839643 81.82493814 57.0625 78.75 C57.73410156 78.00234375 58.40570312 77.2546875 59.09765625 76.484375 C63.89850921 70.21467791 64.4480555 65.34909666 64.3125 57.6875 C64.31572266 56.78837891 64.31894531 55.88925781 64.32226562 54.96289062 C64.2662452 47.91959506 64.03928443 40.87898978 59.875 35 C56.47613957 32.30505488 56.47613957 32.30505488 49 32 Z M39 134 C37.68 134.33 36.36 134.66 35 135 C35.33 135.99 35.66 136.98 36 138 C36.66 138 37.32 138 38 138 C38 137.34 38 136.68 38 136 C38.66 136 39.32 136 40 136 C39.67 135.34 39.34 134.68 39 134 Z M24 142 C23.01 142.495 23.01 142.495 22 143 C22 143.66 22 144.32 22 145 C22.99 145.33 23.98 145.66 25 146 C24.67 144.68 24.34 143.36 24 142 Z M43 153 C42.67 153.66 42.34 154.32 42 155 C42.99 154.67 43.98 154.34 45 154 C44.34 153.67 43.68 153.34 43 153 Z M124 161 C123.67 162.32 123.34 163.64 123 165 C124.32 164.67 125.64 164.34 127 164 C126.67 163.01 126.34 162.02 126 161 C125.34 161 124.68 161 124 161 Z M89 169 C89.33 169.66 89.66 170.32 90 171 C90.33 170.34 90.66 169.68 91 169 C90.34 169 89.68 169 89 169 Z M103 171 C104 173 104 173 104 173 Z M33 173 C33.66 174.65 34.32 176.3 35 178 C35.33 176.68 35.66 175.36 36 174 C35.01 173.67 34.02 173.34 33 173 Z M83 176 C83 176.99 83 177.98 83 179 C83.66 178.67 84.32 178.34 85 178 C84.34 177.34 83.68 176.68 83 176 Z M81 180 C80.67 180.66 80.34 181.32 80 182 C80.66 182 81.32 182 82 182 C81.67 181.34 81.34 180.68 81 180 Z " transform="translate(1363,12)" style="fill: #F1F1F1;"/><path d="M0 0 C15.84 0 31.68 0 48 0 C48.02505615 4.14264404 48.0501123 8.28528809 48.07592773 12.5534668 C48.15954655 26.26783609 48.24816712 39.98216929 48.33933926 53.69649029 C48.39447475 62.00834003 48.44792296 70.32019406 48.49731445 78.63208008 C48.54039885 85.88183444 48.58673525 93.13155971 48.63687855 100.3812688 C48.66328576 104.21526152 48.68813118 108.0492492 48.70907402 111.88327599 C48.72889322 115.50215181 48.75310566 119.12097327 48.78049088 122.7397995 C48.79408853 124.68031954 48.80320503 126.62086942 48.81211853 128.56141663 C48.1932076 141.62765026 48.1932076 141.62765026 51 154 C53.31 154 55.62 154 58 154 C60.33804262 146.59135704 60.30738578 139.40270134 60.31884766 131.68945312 C60.32815843 130.24986211 60.3383288 128.81027643 60.34928894 127.37069702 C60.37647358 123.48287628 60.39170392 119.59509154 60.40471697 115.707201 C60.42039826 111.63658671 60.44717243 107.56604539 60.4727478 103.4954834 C60.51944737 95.79634609 60.55623405 88.09719492 60.58942068 80.3979888 C60.62770456 71.62888017 60.67709823 62.85984499 60.72740483 54.09079838 C60.83059344 36.06057985 60.9184298 18.03033019 61 0 C77.17 0 93.34 0 110 0 C110.02260914 17.16834008 110.04101537 34.33666738 110.05181217 51.50501823 C110.05695947 59.47730926 110.06397222 67.44959035 110.07543945 75.421875 C110.08543425 82.37382741 110.09186481 89.32577262 110.09408849 96.27773201 C110.09538748 99.95571098 110.09842161 103.63366935 110.10573006 107.31164169 C110.11383936 111.4263575 110.11398806 115.54103794 110.11352539 119.65576172 C110.11712067 120.86345718 110.12071594 122.07115265 110.12442017 123.31544495 C110.10267365 141.23625103 110.10267365 141.23625103 107.26928711 145.76831055 C106.5294458 146.46738525 105.78960449 147.16645996 105.02734375 147.88671875 C104.20943359 148.68013672 103.39152344 149.47355469 102.54882812 150.29101562 C101.68708984 151.08185547 100.82535156 151.87269531 99.9375 152.6875 C99.10283203 153.48994141 98.26816406 154.29238281 97.40820312 155.11914062 C93.66301702 158.6950198 89.84332207 162.14811952 85.890625 165.4921875 C82.97402206 168.00562048 80.49591128 170.67368115 78.01953125 173.62109375 C66.48503424 187.07777858 66.48503424 187.07777858 58.6875 188.30859375 C53.35293559 188.59890029 48.23734947 187.97536831 43 187 C41.90582764 186.814375 41.90582764 186.814375 40.78955078 186.625 C28.05554971 184.3146497 15.4818496 178.57156767 7.875 167.8125 C0.30287459 155.84814436 -0.15188098 144.59494387 -0.11352539 130.78125 C-0.11324293 129.35151674 -0.1134024 127.92178334 -0.1139679 126.49205017 C-0.11425357 122.63106393 -0.10839407 118.77010907 -0.10139394 114.9091301 C-0.09512206 110.86658642 -0.09455357 106.82404194 -0.09336853 102.78149414 C-0.09026649 95.13544632 -0.08206835 87.48941289 -0.07201904 79.84337139 C-0.06082283 71.1347683 -0.05533862 62.4261645 -0.05032361 53.717556 C-0.03988475 35.8116942 -0.02155334 17.90585211 0 0 Z M7 161 C6.67 161.66 6.34 162.32 6 163 C6.66 163 7.32 163 8 163 C7.67 162.34 7.34 161.68 7 161 Z M15 168 C14.67 168.66 14.34 169.32 14 170 C14.66 170 15.32 170 16 170 C15.67 169.34 15.34 168.68 15 168 Z M55 173 C56 175 56 175 56 175 Z M58 174 C57.34 174.66 56.68 175.32 56 176 C56.99 176 57.98 176 59 176 C58.67 175.34 58.34 174.68 58 174 Z " transform="translate(169,12)" style="fill: #F8F8F8;"/><path d="M0 0 C5.68709442 4.80300201 9.96364501 10.121533 13.11328125 16.89453125 C13.11328125 17.55453125 13.11328125 18.21453125 13.11328125 18.89453125 C11.66210938 20.32226562 11.66210938 20.32226562 9.64453125 21.98828125 C5.05119303 25.89423611 0.83587378 30.09502447 -3.38671875 34.39453125 C-8.13147093 39.22570878 -12.93039945 43.87578244 -18.06542969 48.29150391 C-21.50298782 51.31710802 -24.61048152 54.65559135 -27.78515625 57.953125 C-29.88671875 59.89453125 -29.88671875 59.89453125 -31.88671875 59.89453125 C-31.91644775 58.64748413 -31.91644775 58.64748413 -31.94677734 57.37524414 C-32.02552407 54.24952113 -32.11223449 51.12414212 -32.20410156 47.9987793 C-32.26057973 45.99739396 -32.30811643 43.99576267 -32.35546875 41.99414062 C-32.56613277 35.0246725 -33.06713719 28.63290035 -34.88671875 21.89453125 C-37.74449908 21.20959752 -37.74449908 21.20959752 -40.88671875 20.89453125 C-43.94808134 22.51163305 -43.94808134 22.51163305 -44.56628227 24.72387123 C-44.91067769 27.05683084 -45.01262023 29.26625773 -45.01370239 31.62509155 C-45.01652222 32.57271866 -45.01934204 33.52034576 -45.02224731 34.49668884 C-45.02022308 35.52951492 -45.01819885 36.562341 -45.01611328 37.62646484 C-45.0178656 38.71956467 -45.01961792 39.81266449 -45.02142334 40.93888855 C-45.02582904 44.55693138 -45.02290793 48.17492541 -45.01953125 51.79296875 C-45.02020475 54.30636606 -45.02117517 56.81976331 -45.02243042 59.3331604 C-45.02390574 64.60394794 -45.02185387 69.87472278 -45.01708984 75.14550781 C-45.01165342 81.23029817 -45.01340652 87.31505499 -45.01891625 93.39984453 C-45.02401053 99.26138527 -45.02345899 105.12291332 -45.02053452 110.98445511 C-45.01986757 113.47472768 -45.02068558 115.9650011 -45.02301407 118.45527267 C-45.02555541 121.93814097 -45.02167872 125.42094507 -45.01611328 128.90380859 C-45.01813751 129.93258621 -45.02016174 130.96136383 -45.02224731 132.02131653 C-45.00823063 136.75978037 -44.87753505 141.2355002 -43.88671875 145.89453125 C-40.91671875 145.89453125 -37.94671875 145.89453125 -34.88671875 145.89453125 C-32.36889956 140.7621664 -31.4268623 136.51633908 -31.375 130.7734375 C-31.3570488 130.02867661 -31.3390976 129.28391571 -31.32060242 128.5165863 C-31.26689565 126.16345702 -31.23273332 123.81052581 -31.19921875 121.45703125 C-31.16601046 119.85088412 -31.1315176 118.24476301 -31.09570312 116.63867188 C-31.01119301 112.72410226 -30.94419504 108.80958731 -30.88671875 104.89453125 C-33.85671875 104.89453125 -36.82671875 104.89453125 -39.88671875 104.89453125 C-39.88671875 95.32453125 -39.88671875 85.75453125 -39.88671875 75.89453125 C-21.07671875 75.89453125 -2.26671875 75.89453125 17.11328125 75.89453125 C17.11328125 108.89453125 17.11328125 141.89453125 17.11328125 175.89453125 C6.88328125 175.89453125 -3.34671875 175.89453125 -13.88671875 175.89453125 C-15.53671875 172.26453125 -17.18671875 168.63453125 -18.88671875 164.89453125 C-19.67046875 165.92578125 -20.45421875 166.95703125 -21.26171875 168.01953125 C-28.38271716 176.14604101 -36.49398181 178.95634266 -47.05078125 179.77734375 C-52.02360593 179.92926304 -56.17344885 179.44420943 -60.88671875 177.89453125 C-62.13001953 177.50587891 -62.13001953 177.50587891 -63.3984375 177.109375 C-74.24944287 173.27081108 -83.79291368 165.20935046 -89.42578125 155.14453125 C-95.80533749 141.11696898 -95.18817805 125.8516245 -95.15234375 110.78125 C-95.15369503 108.75690159 -95.1556394 106.73255349 -95.15814209 104.70820618 C-95.16107359 100.48488242 -95.15686108 96.26164385 -95.14746094 92.03833008 C-95.13608979 86.67297643 -95.14262381 81.30782347 -95.15460587 75.94247723 C-95.161897 71.76671386 -95.15950321 67.5909966 -95.15435028 63.4152317 C-95.15303259 61.43923734 -95.15459407 59.46323855 -95.15930939 57.48724937 C-95.23576494 16.44428428 -95.23576494 16.44428428 -82.375 3.18359375 C-60.14370741 -17.26779943 -24.14903051 -17.61343362 0 0 Z M-32.88671875 168.89453125 C-32.88671875 169.55453125 -32.88671875 170.21453125 -32.88671875 170.89453125 C-31.89671875 170.56453125 -30.90671875 170.23453125 -29.88671875 169.89453125 C-30.87671875 169.56453125 -31.86671875 169.23453125 -32.88671875 168.89453125 Z M-63.88671875 170.89453125 C-63.55671875 171.88453125 -63.22671875 172.87453125 -62.88671875 173.89453125 C-62.55671875 172.90453125 -62.22671875 171.91453125 -61.88671875 170.89453125 C-62.54671875 170.89453125 -63.20671875 170.89453125 -63.88671875 170.89453125 Z " transform="translate(1016.88671875,20.10546875)" style="fill: #951D22;"/><path d="M0 0 C5.34811269 4.41375024 9.9193669 9.65996028 12.47265625 16.1875 C12.337306 20.25596939 9.71186507 22.28383954 6.91015625 25 C6.08386719 25.81082031 5.25757812 26.62164062 4.40625 27.45703125 C2.22844947 29.52142063 -0.02181848 31.48506107 -2.296875 33.44140625 C-6.97660282 37.50931832 -11.30665323 41.89352634 -15.65234375 46.3125 C-25.72340409 56.55169156 -25.72340409 56.55169156 -30.52734375 60.1875 C-31.18734375 60.1875 -31.84734375 60.1875 -32.52734375 60.1875 C-32.5523999 59.17848633 -32.57745605 58.16947266 -32.60327148 57.12988281 C-32.69756784 53.38008304 -32.79773396 49.63045892 -32.8996582 45.88085938 C-32.94292306 44.25915643 -32.98460403 42.63741042 -33.0246582 41.015625 C-33.08256589 38.68215973 -33.14620073 36.34890957 -33.2109375 34.015625 C-33.22764999 33.29256165 -33.24436249 32.56949829 -33.26158142 31.82452393 C-33.35937024 28.48859444 -33.51191025 25.38195984 -34.52734375 22.1875 C-37.8819253 21.42227199 -37.8819253 21.42227199 -41.52734375 21.1875 C-43.56151783 22.66610471 -44.38576176 23.65483748 -45.03395557 26.09348488 C-45.09065261 26.80268766 -45.14734964 27.51189045 -45.20576477 28.24258423 C-45.27005991 29.04225239 -45.33435505 29.84192055 -45.40059853 30.66582108 C-45.61249319 34.88160362 -45.67474512 39.085419 -45.67260742 43.30615234 C-45.67596603 44.27490799 -45.67932465 45.24366364 -45.68278503 46.24177551 C-45.69222232 49.4190095 -45.69423438 52.5961904 -45.6953125 55.7734375 C-45.69852968 57.99866761 -45.7018941 60.22389752 -45.70539856 62.4491272 C-45.71137147 67.10411062 -45.71324031 71.75907552 -45.71264648 76.4140625 C-45.71254487 82.35744761 -45.72620449 88.30071324 -45.74341869 94.24407005 C-45.7545752 98.83735696 -45.75656458 103.43061528 -45.75603676 108.02391434 C-45.75721108 110.21420326 -45.76160186 112.40449306 -45.76936913 114.59476852 C-45.77924465 117.66661547 -45.77626149 120.7382069 -45.77026367 123.81005859 C-45.77588318 124.70079575 -45.78150269 125.5915329 -45.78729248 126.50926208 C-46.10966096 137.02895572 -46.10966096 137.02895572 -42.52734375 146.1875 C-41.00806337 146.25929964 -39.48566893 146.27142007 -37.96484375 146.25 C-37.18117432 146.2389624 -36.39750488 146.2279248 -35.59008789 146.21655273 C-34.90938232 146.20696533 -34.22867676 146.19737793 -33.52734375 146.1875 C-31.71816232 137.09269604 -31.12566189 128.19589799 -30.90234375 118.9375 C-30.86403386 117.5950304 -30.82497534 116.25258194 -30.78515625 114.91015625 C-30.69189708 111.66940024 -30.60609911 108.42863534 -30.52734375 105.1875 C-33.82734375 105.1875 -37.12734375 105.1875 -40.52734375 105.1875 C-40.52734375 95.6175 -40.52734375 86.0475 -40.52734375 76.1875 C-21.71734375 76.1875 -2.90734375 76.1875 16.47265625 76.1875 C16.47265625 109.1875 16.47265625 142.1875 16.47265625 176.1875 C6.24265625 176.1875 -3.98734375 176.1875 -14.52734375 176.1875 C-15.84734375 172.5575 -17.16734375 168.9275 -18.52734375 165.1875 C-19.16671875 166.05375 -19.80609375 166.92 -20.46484375 167.8125 C-25.47061514 173.81373729 -32.73295532 178.57849448 -40.60864258 179.40625 C-56.55565802 180.22799637 -69.2951952 177.280561 -81.5625 166.37890625 C-92.14042958 155.19652355 -94.84262392 141.53073158 -94.80200195 126.64575195 C-94.80711288 125.65547501 -94.81222382 124.66519806 -94.81748962 123.64491272 C-94.83126988 120.40513891 -94.83043716 117.1655807 -94.828125 113.92578125 C-94.83201912 111.64812645 -94.83635525 109.37047238 -94.84111023 107.09281921 C-94.84854828 102.329515 -94.84829934 97.56628492 -94.84301758 92.80297852 C-94.83723551 86.73900551 -94.85413552 80.6753392 -94.87736225 74.61141682 C-94.89219283 69.90897384 -94.89295852 65.20660308 -94.88985252 60.50414085 C-94.89036136 58.27053408 -94.89551567 56.03692278 -94.90566444 53.803339 C-95.03991624 20.11958825 -95.03991624 20.11958825 -87.52734375 9.1875 C-87.15351562 8.62289063 -86.7796875 8.05828125 -86.39453125 7.4765625 C-78.54038252 -2.91725109 -66.20899296 -8.79948383 -53.765625 -11.38671875 C-34.91182549 -13.86568636 -15.73529493 -11.28466282 0 0 Z " transform="translate(119.52734375,19.8125)" style="fill: #961D23;"/><path d="M0 0 C23.1 0 46.2 0 70 0 C75 31 75 31 76.921875 45.69921875 C77.61019899 50.94485068 77.61019899 50.94485068 78.30078125 56.19018555 C78.60625717 58.5684152 78.89807628 60.94843037 79.17773438 63.32983398 C79.59609449 66.85489654 80.06624401 70.36968013 80.546875 73.88671875 C80.71615509 75.48165413 80.71615509 75.48165413 80.88885498 77.10881042 C81.57272955 82.54808414 81.57272955 82.54808414 85.01353455 86.50558472 C87.32035049 87.54169283 89.57626238 88.28839256 92 89 C93.39709837 89.61766125 94.78587843 90.25497939 96.16015625 90.921875 C96.80791016 91.22480469 97.45566406 91.52773437 98.12304688 91.83984375 C98.76306641 92.14019531 99.40308594 92.44054687 100.0625 92.75 C100.73732422 93.06582031 101.41214844 93.38164063 102.10742188 93.70703125 C103.7386431 94.47058161 105.36937601 95.23517504 107 96 C107 96.66 107 97.32 107 98 C104.80243449 99.70690474 102.60441885 101.30431436 100.3125 102.875 C99.05764575 103.74603168 97.80372357 104.61840783 96.55078125 105.4921875 C95.71027222 106.07009033 95.71027222 106.07009033 94.8527832 106.65966797 C94.24136475 107.10197754 93.62994629 107.54428711 93 108 C92.1353009 108.56506256 91.27060181 109.13012512 90.37969971 109.71231079 C87.7292012 111.77726823 87.7292012 111.77726823 87.66551208 114.78063965 C87.79966019 115.82433716 87.93380829 116.86803467 88.07202148 117.94335938 C88.20913544 119.09924561 88.34624939 120.25513184 88.48751831 121.44604492 C88.74119675 123.20525269 88.74119675 123.20525269 89 125 C89.20763474 126.58808472 89.20763474 126.58808472 89.41946411 128.20825195 C89.86063979 131.44703892 90.3482065 134.67596062 90.84765625 137.90625 C91.02380966 139.07458374 91.19996307 140.24291748 91.38145447 141.44665527 C91.93737922 145.13179024 92.49931286 148.81596846 93.0625 152.5 C93.62888105 156.21264827 94.19383293 159.92548573 94.7542572 163.63903809 C95.10124528 165.93783785 95.4516559 168.2361243 95.80592346 170.53381348 C95.96286179 171.57259644 96.11980011 172.61137939 96.28149414 173.68164062 C96.42059708 174.5906311 96.55970001 175.49962158 96.70301819 176.43615723 C96.99800715 178.98279572 97.05305884 181.43889699 97 184 C91.03686834 184.02464574 85.07376605 184.042834 79.1105957 184.05493164 C77.08031702 184.05997278 75.05004198 184.06680557 73.01977539 184.07543945 C70.10822653 184.08751467 67.1967255 184.09323034 64.28515625 184.09765625 C62.91485008 184.10539818 62.91485008 184.10539818 61.51686096 184.11329651 C59.34424573 184.11349168 57.17172704 184.06211805 55 184 C52.57616482 181.57616482 53.46645135 175.40570963 53.28125 172.125 C53.34864552 169.1350199 53.34864552 169.1350199 52 168 C51.49521845 164.95238937 51.04734696 161.9133829 50.63305664 158.85302734 C50.49957321 157.89186508 50.36608978 156.93070282 50.2285614 155.94041443 C49.78506275 152.73946473 49.3475961 149.53772037 48.91015625 146.3359375 C48.60285113 144.1088068 48.29518314 141.88172613 47.98716736 139.6546936 C47.17370679 133.76560816 46.36538431 127.87582809 45.55804443 121.98590088 C44.74307704 116.04744959 43.92300893 110.10970308 43.10351562 104.171875 C38.07411436 67.70126145 38.07411436 67.70126145 36 52 C33.75436933 64.02649153 31.95103023 76.08130747 30.33639336 88.20763206 C29.92339589 91.30699928 29.50553246 94.40567792 29.08644104 97.50422668 C27.8976593 106.29952389 26.7171747 115.09592674 25.5402832 123.89282227 C24.81552012 129.30768301 24.08511328 134.72175879 23.35130501 140.13540077 C23.07439749 142.1871712 22.79970707 144.23924215 22.52731133 146.29161644 C22.14774612 149.15112236 21.76105415 152.00958234 21.37280273 154.86791992 C21.26314682 155.70796066 21.15349091 156.5480014 21.04051208 157.41349792 C20.43266457 161.82879688 19.49152208 165.77957876 18 170 C17.83142517 172.75065232 17.83142517 172.75065232 18 175 C17.34 175.33 16.68 175.66 16 176 C16.33 176.33 16.66 176.66 17 177 C17 179.31 17 181.62 17 184 C3.47 184 -10.06 184 -24 184 C-23.37769489 175.91003362 -22.70912663 167.95804914 -21.625 159.9375 C-21.49488525 158.95579834 -21.36477051 157.97409668 -21.23071289 156.96264648 C-20.25289136 149.66686461 -19.17738829 142.38787929 -18.06176758 135.11206055 C-16.89055481 127.42544032 -15.91659173 119.72093744 -15 112 C-15.57524414 111.72816895 -16.15048828 111.45633789 -16.74316406 111.17626953 C-19.01575818 109.99178679 -21.02289641 108.66551316 -23.109375 107.1796875 C-24.24052734 106.37724609 -24.24052734 106.37724609 -25.39453125 105.55859375 C-26.56048828 104.72521484 -26.56048828 104.72521484 -27.75 103.875 C-28.54277344 103.31167969 -29.33554688 102.74835938 -30.15234375 102.16796875 C-32.10334076 100.78111545 -34.05247588 99.39172386 -36 98 C-35 95 -35 95 -32.89868164 93.83325195 C-31.54311157 93.29124146 -31.54311157 93.29124146 -30.16015625 92.73828125 C-29.17982422 92.34189453 -28.19949219 91.94550781 -27.18945312 91.53710938 C-26.15755859 91.13298828 -25.12566406 90.72886719 -24.0625 90.3125 C-23.03447266 89.89677734 -22.00644531 89.48105469 -20.94726562 89.05273438 C-13.31292334 86 -13.31292334 86 -11 86 C-10.95137817 85.17617828 -10.90275635 84.35235657 -10.85266113 83.50357056 C-10.25515049 74.2454679 -9.20552105 65.09028941 -7.96875 55.8984375 C-7.7704919 54.40349241 -7.57254067 52.90850659 -7.37487793 51.41348267 C-6.96395707 48.31224722 -6.55024403 45.21140244 -6.13427734 42.11083984 C-5.60188334 38.14163685 -5.07534056 34.17168434 -4.55068207 30.20145226 C-4.14415658 27.12830393 -3.73526209 24.05547466 -3.32557678 20.98274612 C-3.13044393 19.51801811 -2.93588782 18.05321314 -2.7419281 16.58832932 C-2.47153617 14.54994319 -2.19811732 12.51198597 -1.92382812 10.47412109 C-1.76918091 9.31721771 -1.61453369 8.16031433 -1.4552002 6.96835327 C-1 4 -1 4 0 0 Z M57 149 C58 151 58 151 58 151 Z M-4 160 C-4 160.66 -4 161.32 -4 162 C-3.34 161.67 -2.68 161.34 -2 161 C-2.66 160.67 -3.32 160.34 -4 160 Z M63 165 C64 168 64 168 64 168 Z M-2 166 C-2 166.99 -2 167.98 -2 169 C-0.68 168.67 0.64 168.34 2 168 C0.68 167.34 -0.64 166.68 -2 166 Z M-1 175 C-1 175.99 -1 176.98 -1 178 C-0.01 177.67 0.98 177.34 2 177 C1.67 176.34 1.34 175.68 1 175 C0.34 175 -0.32 175 -1 175 Z M64 178 C63.67 178.66 63.34 179.32 63 180 C63.99 179.67 64.98 179.34 66 179 C65.34 178.67 64.68 178.34 64 178 Z M-21 179 C-20 182 -20 182 -20 182 Z " transform="translate(1226,12)" style="fill: #F4F4F4;"/><path d="M0 0 C26.73 0 53.46 0 81 0 C81 12.54 81 25.08 81 38 C70.44 38 59.88 38 49 38 C49 48.89 49 59.78 49 71 C62.86 71 76.72 71 91 71 C91 71.66 91 72.32 91 73 C89.49609375 74.48046875 89.49609375 74.48046875 87.4375 76.1875 C83.9609005 79.12876471 80.7632889 82.20738532 77.640625 85.51953125 C75.8759734 87.11191924 74.16270067 88.03618775 72 89 C72 89.66 72 90.32 72 91 C70.56640625 92.41015625 70.56640625 92.41015625 68.5625 94.0625 C64.45015596 97.5125019 60.85788048 101.28648623 57.2734375 105.27734375 C55 107 55 107 49 107 C49 119.87 49 132.74 49 146 C60.55 146 72.1 146 84 146 C84 158.54 84 171.08 84 184 C79.09125 184.04125 74.1825 184.0825 69.125 184.125 C67.57699707 184.14320801 66.02899414 184.16141602 64.43408203 184.18017578 C63.22091309 184.1851709 62.00774414 184.19016602 60.7578125 184.1953125 C58.88826904 184.21102295 58.88826904 184.21102295 56.98095703 184.22705078 C54 184 54 184 52 182 C51.01 182.66 50.02 183.32 49 184 C32.83 184 16.66 184 0 184 C0 123.28 0 62.56 0 0 Z M30 162 C31 164 31 164 31 164 Z M22 174 C22.33 174.99 22.66 175.98 23 177 C23.33 176.01 23.66 175.02 24 174 C23.34 174 22.68 174 22 174 Z M42 174 C42.33 174.66 42.66 175.32 43 176 C43.66 175.67 44.32 175.34 45 175 C44.01 174.67 43.02 174.34 42 174 Z M62 175 C61.67 176.65 61.34 178.3 61 180 C61.66 180 62.32 180 63 180 C63 178.35 63 176.7 63 175 C62.67 175 62.34 175 62 175 Z M73 176 C73.66 176.66 74.32 177.32 75 178 C75.33 177.34 75.66 176.68 76 176 C75.01 176 74.02 176 73 176 Z M78 178 C79 180 79 180 79 180 Z " transform="translate(1076,12)" style="fill: #F2F2F2;"/><path d="M0 0 C14.85 0 29.7 0 45 0 C46.83724829 7.34899317 48.55934804 14.46177977 49.7890625 21.89453125 C49.9378183 22.77098801 50.0865741 23.64744476 50.23983765 24.55046082 C50.70594301 27.30375545 51.1654887 30.05809813 51.625 32.8125 C51.93969379 34.67389755 52.2547952 36.53522624 52.5703125 38.39648438 C55.00477034 52.8130973 55.00477034 52.8130973 56 60 C57.52100326 54.14775488 58.76646628 48.29069526 59.875 42.34765625 C60.04499512 41.44808701 60.21499023 40.54851776 60.39013672 39.62168884 C60.92897762 36.76903899 61.46474498 33.91582468 62 31.0625 C62.53557103 28.21280777 63.07186005 25.36325692 63.60986328 22.51402283 C63.94305726 20.74897312 64.27485753 18.98365951 64.60498047 17.21803284 C67.58479967 1.41520033 67.58479967 1.41520033 69 0 C70.41225046 -0.0928726 71.82908934 -0.11746772 73.24438477 -0.11352539 C74.59567223 -0.11341209 74.59567223 -0.11341209 75.97425842 -0.11329651 C76.95341721 -0.10813522 77.93257599 -0.10297394 78.94140625 -0.09765625 C79.93881332 -0.0962413 80.9362204 -0.09482635 81.96385193 -0.09336853 C85.16343124 -0.08775114 88.36294169 -0.07519571 91.5625 -0.0625 C93.72591045 -0.05748724 95.88932199 -0.05292395 98.05273438 -0.04882812 C103.36851325 -0.03777607 108.68425171 -0.02102104 114 0 C106.69832081 25.40279898 99.23372176 50.75311295 91.64105225 76.07037354 C89.58095716 82.94036634 87.52327365 89.8110808 85.46673965 96.68214035 C84.75795938 99.0488971 84.04797878 101.41529127 83.33786011 103.78164673 C82.90862898 105.21460735 82.47943765 106.64757989 82.05029297 108.08056641 C81.6770993 109.3249649 81.30390564 110.5693634 80.91940308 111.85147095 C79.38761694 117.09712791 78.98523029 121.22995797 79.2890625 126.6953125 C79.34559162 128.23165838 79.39887151 129.76812661 79.44921875 131.3046875 C79.52895337 133.71042288 79.62401531 136.10932197 79.77490234 138.51171875 C80.6210241 152.48861052 80.6210241 152.48861052 76.68261719 157.31152344 C72.43911274 161.31286751 68.91585253 164.299172 63 165 C63 166.32 63 167.64 63 169 C61.74658203 170.72338867 61.74658203 170.72338867 60.0078125 172.41796875 C59.38519531 173.03220703 58.76257813 173.64644531 58.12109375 174.27929688 C57.46238281 174.90900391 56.80367187 175.53871094 56.125 176.1875 C55.47402344 176.82880859 54.82304688 177.47011719 54.15234375 178.13085938 C49.30619867 182.86209586 47.35193965 184.13090137 40.375 184.0625 C39.18648437 184.05347656 37.99796875 184.04445312 36.7734375 184.03515625 C35.85820313 184.02355469 34.94296875 184.01195312 34 184 C34.03632538 183.3168573 34.07265076 182.6337146 34.1100769 181.92987061 C36.3873211 136.05932897 29.78006416 97.06912605 15.40682983 53.56262207 C11.61218514 42.06721666 8.1289955 30.49806669 4.7734375 18.8671875 C4.53000233 18.02725376 4.28656715 17.18732002 4.03575516 16.32193375 C3.35266028 13.96159642 2.67397902 11.60005074 1.99755859 9.23779297 C1.79388042 8.53170269 1.59020226 7.82561241 1.38035202 7.09812546 C0 2.23372384 0 2.23372384 0 0 Z M49 140 C50 142 50 142 50 142 Z M51 149 C51.33 149.99 51.66 150.98 52 152 C53.32 151.67 54.64 151.34 56 151 C53.525 150.01 53.525 150.01 51 149 Z " transform="translate(633,12)" style="fill: #F5F5F5;"/><path d="M0 0 C0.69294159 -0.00043808 1.38588318 -0.00087616 2.099823 -0.00132751 C4.38885738 0.00076153 6.67715812 0.02409691 8.96606445 0.04760742 C10.55361023 0.05320299 12.14116118 0.05747328 13.72871399 0.06047058 C17.90620233 0.07192249 22.08337753 0.10139244 26.26074219 0.13458252 C30.52380131 0.16527606 34.78691105 0.17897437 39.05004883 0.1940918 C47.41412479 0.226262 55.77794629 0.2774623 64.1418457 0.34057617 C64.16649498 5.59163059 64.18468138 10.84265162 64.19677734 16.09375 C64.20181789 17.88151638 64.20865024 19.66927862 64.21728516 21.45703125 C64.22936301 24.02108785 64.23507665 26.58509015 64.23950195 29.14916992 C64.24466324 29.95333847 64.24982452 30.75750702 64.25514221 31.58604431 C64.25533785 33.50459332 64.20386553 35.42302985 64.1418457 37.34057617 C63.1418457 38.34057617 63.1418457 38.34057617 60.45800781 38.45410156 C59.29019775 38.44886475 58.1223877 38.44362793 56.91918945 38.43823242 C55.65913086 38.43500977 54.39907227 38.43178711 53.10083008 38.4284668 C51.76033462 38.42011021 50.41983982 38.41164525 49.0793457 38.40307617 C47.73494628 38.39806277 46.39054511 38.39349959 45.04614258 38.3894043 C41.7446663 38.37757105 38.44327767 38.36108588 35.1418457 38.34057617 C35.14792123 38.93505743 35.15399675 39.52953869 35.16025639 40.14203453 C35.30899307 54.7385006 35.45064439 69.33502421 35.5848093 83.93163109 C35.64985911 90.99099774 35.71713837 98.05032883 35.79003906 105.10961914 C35.85371765 111.27648042 35.91283388 117.44336741 35.96690124 123.61032069 C35.99556594 126.86295214 36.02690364 130.11551873 36.06237984 133.36808395 C36.24624664 150.39152004 35.96766809 167.33516115 35.1418457 184.34057617 C28.46663605 184.36444968 21.79145316 184.38340885 15.11621094 184.39550781 C12.84341979 184.40054942 10.5706319 184.40738255 8.29785156 184.41601562 C5.03881019 184.42808878 1.77981154 184.43380604 -1.47924805 184.43823242 C-2.50215439 184.44339371 -3.52506073 184.44855499 -4.57896423 184.45387268 C-5.51986404 184.45394821 -6.46076385 184.45402374 -7.43017578 184.45410156 C-8.26290512 184.45632217 -9.09563446 184.45854279 -9.95359802 184.46083069 C-11.8581543 184.34057617 -11.8581543 184.34057617 -12.8581543 183.34057617 C-13.02585306 181.11750364 -13.12105136 178.88896869 -13.18994141 176.66064453 C-13.21198954 175.94851618 -13.23403767 175.23638783 -13.25675392 174.50267982 C-13.32776594 172.08290017 -13.38894176 169.66301989 -13.44799805 167.24291992 C-13.48054341 165.97038014 -13.48054341 165.97038014 -13.51374626 164.67213249 C-14.1056958 140.62382922 -13.75231597 116.57554199 -13.46325684 92.52508545 C-13.39108069 86.38876883 -13.3271744 80.25236575 -13.26245117 74.1159668 C-13.1355124 62.19073803 -12.99906576 50.26564802 -12.8581543 38.34057617 C-22.0981543 38.34057617 -31.3381543 38.34057617 -40.8581543 38.34057617 C-41.1881543 36.69057617 -41.5181543 35.04057617 -41.8581543 33.34057617 C-40.26049805 31.37573242 -40.26049805 31.37573242 -37.7956543 29.40307617 C-33.19779357 25.54242518 -28.94035363 21.49857071 -24.7331543 17.21557617 C-20.42796159 12.86060576 -16.10142694 8.61596494 -11.40893555 4.67260742 C-9.81562131 3.40159624 -9.81562131 3.40159624 -8.68986511 1.77861023 C-5.88983428 -0.41962961 -3.51659122 -0.01867217 0 0 Z M26.1418457 152.34057617 C27.1418457 154.34057617 27.1418457 154.34057617 27.1418457 154.34057617 Z M11.1418457 158.34057617 C10.8118457 159.00057617 10.4818457 159.66057617 10.1418457 160.34057617 C10.8018457 160.34057617 11.4618457 160.34057617 12.1418457 160.34057617 C11.8118457 159.68057617 11.4818457 159.02057617 11.1418457 158.34057617 Z M5.1418457 162.34057617 C5.1418457 163.00057617 5.1418457 163.66057617 5.1418457 164.34057617 C5.8018457 164.34057617 6.4618457 164.34057617 7.1418457 164.34057617 C7.1418457 163.68057617 7.1418457 163.02057617 7.1418457 162.34057617 C6.4818457 162.34057617 5.8218457 162.34057617 5.1418457 162.34057617 Z M25.1418457 169.34057617 C26.4618457 169.34057617 27.7818457 169.34057617 29.1418457 169.34057617 C29.1418457 168.68057617 29.1418457 168.02057617 29.1418457 167.34057617 C26.90614344 167.10487391 26.90614344 167.10487391 25.1418457 169.34057617 Z " transform="translate(547.858154296875,11.659423828125)" style="fill: #F7F7F7;"/><path d="M0 0 C23.76 0 47.52 0 72 0 C70.04700287 3.90599426 68.723716 5.36035748 65.5 8.125 C64.21677337 9.22907486 62.9398231 10.34251727 61.71640015 11.51251221 C60 13 60 13 57.55239868 14.48114014 C53.25924379 17.61773063 50.5610327 20.43372469 49.42151642 25.64609909 C48.54602171 33.35275052 48.68177779 41.10658509 48.78413153 48.85121775 C48.8187426 52.27191038 48.79637681 55.69224431 48.78030396 59.11300659 C48.7584638 65.57657056 48.78714849 72.03886182 48.834427 78.5022496 C48.88580151 85.86638981 48.88018264 93.2301513 48.87000632 100.59442353 C48.85035589 115.73019289 48.90904973 130.86441529 49 146 C58.57 146 68.14 146 78 146 C78 158.54 78 171.08 78 184 C52.26 184 26.52 184 0 184 C0 123.28 0 62.56 0 0 Z M10 158 C10 158.66 10 159.32 10 160 C8.68 160 7.36 160 6 160 C6.66 161.32 7.32 162.64 8 164 C8.66 163.67 9.32 163.34 10 163 C9.67 162.34 9.34 161.68 9 161 C9.99 160.67 10.98 160.34 12 160 C11.34 159.34 10.68 158.68 10 158 Z M50 164 C50.33 164.66 50.66 165.32 51 166 C51.33 165.34 51.66 164.68 52 164 C51.34 164 50.68 164 50 164 Z M67 171 C67 171.66 67 172.32 67 173 C69.64 173 72.28 173 75 173 C74.67 172.01 74.34 171.02 74 170 C71.57202689 170 69.37092995 170.50085685 67 171 Z M69 176 C68.01 177.485 68.01 177.485 67 179 C67.99 179 68.98 179 70 179 C69.67 178.01 69.34 177.02 69 176 Z " transform="translate(408,12)" style="fill: #F3F3F3;"/><path d="M0 0 C16.17 0 32.34 0 49 0 C49.02254474 23.84296661 49.04097784 47.68592464 49.05181217 71.52889919 C49.05697571 82.59877846 49.0640195 93.66865066 49.07543945 104.73852539 C49.08538454 114.38331054 49.09185301 124.02809057 49.09408849 133.67288071 C49.0953959 138.78306561 49.09848364 143.89323585 49.10573006 149.00341606 C49.1124875 153.80742559 49.11461753 158.61141433 49.11310768 163.41542816 C49.11338413 165.18398463 49.11539088 166.95254175 49.11920547 168.72109413 C49.12413843 171.12487473 49.12299978 173.52857557 49.12025452 175.93235779 C49.12316736 176.64148848 49.1260802 177.35061918 49.12908131 178.08123869 C49.11412121 182.88587879 49.11412121 182.88587879 48 184 C45.47905924 184.08847743 42.98569107 184.11527301 40.46484375 184.09765625 C39.33496788 184.09553383 39.33496788 184.09553383 38.18226624 184.09336853 C35.7673044 184.08775376 33.35243399 184.07519883 30.9375 184.0625 C29.30403779 184.0574869 27.67057414 184.05292366 26.03710938 184.04882812 C22.02470415 184.03777954 18.01236759 184.02050506 14 184 C14 183.34 14 182.68 14 182 C13.34 182 12.68 182 12 182 C12 182.66 12 183.32 12 184 C2.43 184 -7.14 184 -17 184 C-17 183.34 -17 182.68 -17 182 C-16.01 182 -15.02 182 -14 182 C-13.505 180.02 -13.505 180.02 -13 178 C-12.34 178 -11.68 178 -11 178 C-11 177.34 -11 176.68 -11 176 C-9.3203125 174.34375 -9.3203125 174.34375 -7.125 172.5 C-2.56140166 169.12883801 -2.56140166 169.12883801 -0.73828697 164.14580345 C-0.73275621 162.91613161 -0.72722546 161.68645977 -0.7215271 160.41952515 C-0.7157347 159.73586305 -0.7099423 159.05220096 -0.70397437 158.34782183 C-0.68690487 156.04612446 -0.68409197 153.74462675 -0.68115234 151.44287109 C-0.67185894 149.79727177 -0.66169116 148.15167719 -0.65071106 146.50608826 C-0.62333062 142.02908682 -0.60823792 137.55211699 -0.59528303 133.07505369 C-0.57968756 128.39982176 -0.552886 123.72465472 -0.5272522 119.04946899 C-0.48040075 110.19202651 -0.44368752 101.3345719 -0.41057932 92.47706854 C-0.37240282 82.39494907 -0.32298101 72.31289465 -0.27259517 62.23082995 C-0.16918064 41.48726195 -0.08143599 20.74366674 0 0 Z M-2 173 C-2 173.66 -2 174.32 -2 175 C-1.34 174.67 -0.68 174.34 0 174 C-0.66 173.67 -1.32 173.34 -2 173 Z M-6 174 C-5.67 174.99 -5.34 175.98 -5 177 C-4.01 176.67 -3.02 176.34 -2 176 C-3.32 175.34 -4.64 174.68 -6 174 Z " transform="translate(319,12)" style="fill: #F4F4F4;"/><path d="M0 0 C2.125 0.375 2.125 0.375 4 1 C5.75385569 6.66630299 6.87130047 12.37044654 7.92578125 18.20703125 C10.66375092 27.87455326 15.57751184 34.25511216 22.80078125 41.078125 C24.51631533 42.74995969 26.23180895 44.42183589 27.94726562 46.09375 C30.6405968 48.6871637 33.33890076 51.2752827 36.03930664 53.86132812 C38.65969059 56.37947749 41.26188821 58.91538496 43.86328125 61.453125 C44.67879959 62.22199036 45.49431793 62.99085571 46.33454895 63.78302002 C51.82711098 69.15320157 51.82711098 69.15320157 52.69604492 73.40917969 C52 76 52 76 49 78 C46.24213585 78.17177775 43.58784476 78.23216238 40.83203125 78.1953125 C39.63981209 78.19106766 39.63981209 78.19106766 38.42350769 78.18673706 C35.88635162 78.17554705 33.34954928 78.15044491 30.8125 78.125 C29.09180198 78.11496866 27.37109841 78.10584308 25.65039062 78.09765625 C21.43345757 78.07561161 17.21678875 78.04109006 13 78 C13 74 13 74 14 73 C16.65463121 72.54540142 19.32189138 72.29756762 22 72 C19.83378929 69.68739326 17.63871557 67.40427286 15.4375 65.125 C14.82841797 64.47402344 14.21933594 63.82304688 13.59179688 63.15234375 C9.71928302 59.17738244 6.74207579 56.60714862 1 56 C-6.31307599 57.71212014 -10.80211089 63.31508489 -15.875 68.5625 C-16.74125 69.43841797 -17.6075 70.31433594 -18.5 71.21679688 C-24.11803643 76.69048611 -24.11803643 76.69048611 -26.8046875 83.84375 C-26.73723468 89.64934463 -23.09819413 92.83476292 -19.22357178 96.67724609 C-17.53829126 98.30051802 -15.83238089 99.90002276 -14.125 101.5 C-12.98368047 102.60471178 -11.84433449 103.71146637 -10.70703125 104.8203125 C-4.52286732 111.40291469 -4.52286732 111.40291469 3.625 114.4375 C9.04761238 114.3294407 12.32396535 111.81190452 16 108 C18.87761651 104.34140197 21.8307411 100.57548 22.14453125 95.80078125 C21.89993869 93.68901771 21.89993869 93.68901771 21 91 C18.2097333 90.0699111 16.23470458 89.81301231 13.33203125 89.68359375 C12.43935547 89.64169922 11.54667969 89.59980469 10.62695312 89.55664062 C9.69818359 89.51732422 8.76941406 89.47800781 7.8125 89.4375 C6.40194336 89.37272461 6.40194336 89.37272461 4.96289062 89.30664062 C2.64207146 89.20061335 0.32114675 89.09854971 -2 89 C-2.625 86.625 -2.625 86.625 -3 84 C-0.46752573 81.46752573 0.42753935 81.73896206 3.93701172 81.70947266 C5.47903763 81.6903331 5.47903763 81.6903331 7.05221558 81.67080688 C8.72406418 81.66746841 8.72406418 81.66746841 10.4296875 81.6640625 C11.57156525 81.6574057 12.71344299 81.6507489 13.8899231 81.64389038 C16.30924871 81.63374988 18.72860237 81.62907379 21.14794922 81.62939453 C24.85300783 81.62502593 28.55687145 81.58873166 32.26171875 81.55078125 C34.60937091 81.54491257 36.95702875 81.54094352 39.3046875 81.5390625 C40.41520477 81.52469147 41.52572205 81.51032043 42.66989136 81.49551392 C43.70421295 81.50166718 44.73853455 81.50782043 45.80419922 81.51416016 C47.16748856 81.5098851 47.16748856 81.5098851 48.55831909 81.50552368 C51.76230807 82.1543786 52.9428486 83.52038529 55 86 C56.25248502 88.50497004 56.11374406 90.20853274 56.09765625 93.0078125 C56.09282227 94.48701172 56.09282227 94.48701172 56.08789062 95.99609375 C56.07532227 97.54490234 56.07532227 97.54490234 56.0625 99.125 C56.05798828 100.16527344 56.05347656 101.20554687 56.04882812 102.27734375 C56.03701952 104.85161962 56.02055075 107.42578146 56 110 C54.68 110.33 53.36 110.66 52 111 C52 111.66 52 112.32 52 113 C53.98 113.495 53.98 113.495 56 114 C56 116.97 56 119.94 56 123 C54.34385343 123.38218767 52.67542976 123.71395102 51 124 C49.05339295 122.05339295 49.59168751 118.47918556 49.4375 115.8125 C49.35371094 114.49894531 49.26992188 113.18539062 49.18359375 111.83203125 C49.02609251 108.54461183 48.98632533 105.28977718 49 102 C43.80065706 107.04622877 38.62576736 112.11661175 33.46655273 117.20385742 C31.71157418 118.92880874 29.95122939 120.64831907 28.18530273 122.36206055 C25.63628872 124.83764913 23.10772151 127.33267711 20.58203125 129.83203125 C19.79850784 130.58458694 19.01498444 131.33714264 18.2077179 132.11250305 C13.38014671 136.93711932 10.48386471 141.45306002 7.98735046 147.81840515 C7 150 7 150 5 151 C5.66 151 6.32 151 7 151 C6.69188262 153.45895618 6.37871012 155.91708307 6.0625 158.375 C5.97548828 159.07367188 5.88847656 159.77234375 5.79882812 160.4921875 C5.11328125 165.7734375 5.11328125 165.7734375 4 168 C2.02 167.67 0.04 167.34 -2 167 C-2.17015625 165.88882813 -2.3403125 164.77765625 -2.515625 163.6328125 C-4.86112234 148.9503295 -8.20395117 139.70888316 -18.8984375 129.12890625 C-19.65048462 128.38338501 -19.65048462 128.38338501 -20.41772461 127.62280273 C-21.41983023 126.63518538 -22.42835682 125.65403526 -23.44360352 124.67993164 C-24.66575496 123.48983522 -25.83762916 122.24855023 -27 121 C-27 120.34 -27 119.68 -27 119 C-27.53608887 118.78770752 -28.07217773 118.57541504 -28.62451172 118.35668945 C-31.89386916 116.48949323 -34.36812873 113.93709296 -37.0078125 111.29296875 C-37.57450653 110.73055984 -38.14120056 110.16815094 -38.72506714 109.58869934 C-39.91935347 108.40014438 -41.11104337 107.20897549 -42.30029297 106.01538086 C-44.11694002 104.195574 -45.94649724 102.3894913 -47.77734375 100.58398438 C-48.93831056 99.42529075 -50.09849348 98.26581105 -51.2578125 97.10546875 C-51.80365997 96.56883102 -52.34950745 96.0321933 -52.91189575 95.47929382 C-55.8313108 92.52404582 -57.90485284 90.04157429 -59 86 C-58.81187514 80.73250386 -57.74468615 77.74468615 -54 74 C-53.34 74 -52.68 74 -52 74 C-51.67 73.01 -51.34 72.02 -51 71 C-49.41972351 69.43354797 -49.41972351 69.43354797 -47.4128418 67.77075195 C-40.95837689 62.29056283 -35.00873964 56.30873015 -28.99926758 50.34936523 C-27.54138159 48.90808127 -26.07814498 47.47218954 -24.60961914 46.04174805 C-22.46296276 43.95023865 -20.33357849 41.84239904 -18.20703125 39.73046875 C-17.55797318 39.10408005 -16.9089151 38.47769135 -16.2401886 37.83232117 C-8.72197479 30.27923607 -5.49777641 21.87571097 -3.8125 11.5 C-3.51338478 9.73840227 -3.20771349 7.97790131 -2.89453125 6.21875 C-2.76925049 5.45498047 -2.64396973 4.69121094 -2.51489258 3.90429688 C-2 2 -2 2 0 0 Z M-6.72094727 41.0378418 C-7.77380417 41.99513687 -7.77380417 41.99513687 -8.84793091 42.97177124 C-12.27701063 46.20352534 -15.6380196 49.49526588 -18.96484375 52.83203125 C-19.68362198 53.54985275 -20.40240021 54.26767426 -21.14295959 55.00724792 C-22.6457693 56.50938252 -24.14733866 58.01275897 -25.64770508 59.51733398 C-27.9521476 61.82718196 -30.26194389 64.13158091 -32.57226562 66.43554688 C-34.0367795 67.90072072 -35.50098358 69.36620429 -36.96484375 70.83203125 C-37.65642075 71.52158401 -38.34799774 72.21113678 -39.06053162 72.92158508 C-39.69531937 73.55952499 -40.33010712 74.1974649 -40.98413086 74.85473633 C-41.82396767 75.69576653 -41.82396767 75.69576653 -42.68077087 76.55378723 C-45.41619376 79.55251082 -45.0852718 82.07749724 -45 86 C-43.68 86 -42.36 86 -41 86 C-40.65340332 85.00436035 -40.30680664 84.0087207 -39.94970703 82.98291016 C-37.87519536 78.17015779 -34.49055645 74.91529607 -30.8046875 71.2734375 C-30.09780792 70.56273102 -29.39092834 69.85202454 -28.66262817 69.11978149 C-27.16964684 67.62408777 -25.6716405 66.13339504 -24.16894531 64.64746094 C-21.88911492 62.38898273 -19.63133168 60.11005206 -17.375 57.828125 C-15.91534262 56.37111226 -14.45444417 54.91534158 -12.9921875 53.4609375 C-12.32621552 52.78686859 -11.66024353 52.11279968 -10.97409058 51.41830444 C-6.4126251 46.94527807 -1.72801323 43.82180129 4 41 C3.505 39.515 3.505 39.515 3 38 C-1.4775939 37.21642107 -3.49453893 38.09864593 -6.72094727 41.0378418 Z M38.625 93.23828125 C37.74075042 94.2550501 36.86632695 95.28041772 36 96.3125 C31.2158977 101.78273253 26.1427705 106.68779401 20.7265625 111.52734375 C18.06390851 113.94204286 15.52865725 116.44622363 13 119 C8.56460695 123.32792758 5.12618294 125.74975858 -1 127 C-0.67 128.32 -0.34 129.64 0 131 C2.97 131 5.94 131 9 131 C9.33 130.34 9.66 129.68 10 129 C10.99 128.34 11.98 127.68 13 127 C14.68873879 125.35570171 16.35305515 123.68615782 18 122 C19.66518453 120.33185251 21.3321723 118.66550482 23 117 C24.19800129 115.80216796 25.39591171 114.60424504 26.59375 113.40625 C33.0625 106.9375 39.53125 100.46875 46 94 C45.505 92.515 45.505 92.515 45 91 C40.9412429 90.54276672 40.9412429 90.54276672 38.625 93.23828125 Z M-3 117 C-3.66 118.65 -4.32 120.3 -5 122 C-1.88667752 121.33131686 -1.88667752 121.33131686 -0.8125 118.9375 C-0.544375 118.298125 -0.27625 117.65875 0 117 C-0.99 117 -1.98 117 -3 117 Z M-19 119 C-19.33 119.66 -19.66 120.32 -20 121 C-19.34 121 -18.68 121 -18 121 C-18.33 120.34 -18.66 119.68 -19 119 Z " transform="translate(822,21)" style="fill: #E9E8E9;"/><path d="M0 0 C6.70785576 0.07178443 11.60405522 0.8524698 16.875 5.3125 C19.38583582 10.03287135 20.12362609 15.0440303 18.99609375 20.3125 C17.42707955 24.47262908 15.06402676 26.79964408 11.4375 29.25 C12.05238281 30.075 12.66726563 30.9 13.30078125 31.75 C15.7239357 35.38953741 16.682737 39.01975596 17.625 43.25 C17.8715332 44.27867187 17.8715332 44.27867187 18.12304688 45.328125 C19.05448998 49.28015891 19.81690928 53.2381004 20.4375 57.25 C18.4575 57.745 18.4575 57.745 16.4375 58.25 C16.4375 57.26 16.4375 56.27 16.4375 55.25 C14.7875 55.91 13.1375 56.57 11.4375 57.25 C10.70918645 55.19447045 10.00555302 53.13018467 9.3125 51.0625 C8.91804687 49.91394531 8.52359375 48.76539063 8.1171875 47.58203125 C7.37267742 43.93222036 7.7002964 42.47536752 9.4375 39.25 C8.4475 39.25 7.4575 39.25 6.4375 39.25 C5.7775 37.27 5.1175 35.29 4.4375 33.25 C4.26998032 36.37495489 4.10362942 39.49997092 3.9375 42.625 C3.88980469 43.51445312 3.84210937 44.40390625 3.79296875 45.3203125 C3.74785156 46.17109375 3.70273437 47.021875 3.65625 47.8984375 C3.61435547 48.68395996 3.57246094 49.46948242 3.52929688 50.27880859 C3.46770205 51.60145924 3.4375 52.92591592 3.4375 54.25 C3.4375 55.24 3.4375 56.23 3.4375 57.25 C-4.3125 58.375 -4.3125 58.375 -6.5625 57.25 C-6.5625 49.66 -6.5625 42.07 -6.5625 34.25 C-5.5725 34.25 -4.5825 34.25 -3.5625 34.25 C-3.8925 33.59 -4.2225 32.93 -4.5625 32.25 C-5.2225 32.25 -5.8825 32.25 -6.5625 32.25 C-6.5625 27.63 -6.5625 23.01 -6.5625 18.25 C-5.2425 18.25 -3.9225 18.25 -2.5625 18.25 C-2.8925 17.59 -3.2225 16.93 -3.5625 16.25 C-4.5525 16.25 -5.5425 16.25 -6.5625 16.25 C-6.5625 14.27 -6.5625 12.29 -6.5625 10.25 C-5.9025 10.25 -5.2425 10.25 -4.5625 10.25 C-4.5625 11.24 -4.5625 12.23 -4.5625 13.25 C-3.9025 12.92 -3.2425 12.59 -2.5625 12.25 C-3.2225 11.734375 -3.8825 11.21875 -4.5625 10.6875 C-7.23209758 7.43392795 -6.94916941 5.34869574 -6.5625 1.25 C-4.80249081 -0.51000919 -2.38755906 0.03585821 0 0 Z M3.4375 6.25 C3.4375 12.85 3.4375 19.45 3.4375 26.25 C8.28357563 23.96501505 8.28357563 23.96501505 9.25 21.5625 C9.62054668 16.9924243 9.90585283 12.65505849 8.4375 8.25 C9.0975 7.92 9.7575 7.59 10.4375 7.25 C8.1275 6.92 5.8175 6.59 3.4375 6.25 Z M-2.5625 36.25 C-3.2225 36.91 -3.8825 37.57 -4.5625 38.25 C-3.5725 38.25 -2.5825 38.25 -1.5625 38.25 C-1.8925 37.59 -2.2225 36.93 -2.5625 36.25 Z M16.4375 51.25 C17.4375 55.25 17.4375 55.25 17.4375 55.25 Z M-3.5625 53.25 C-2.5625 55.25 -2.5625 55.25 -2.5625 55.25 Z " transform="translate(700.5625,251.75)" style="fill: #C3C3C3;"/><path d="M0 0 C5.94 0 11.88 0 18 0 C18.33 1.32 18.66 2.64 19 4 C18.34 4 17.68 4 17 4 C18.32 11.26 19.64 18.52 21 26 C22.86327965 18.95194218 24.39481689 12.26219733 25 5 C24.34 4.67 23.68 4.34 23 4 C23 2.68 23 1.36 23 0 C28.28 0 33.56 0 39 0 C39.495 1.98 39.495 1.98 40 4 C37.36 4.66 34.72 5.32 32 6 C31.89695557 6.7223584 31.79391113 7.4447168 31.68774414 8.18896484 C30.34942228 17.24459152 28.67477143 26.21534206 26.91333008 35.19677734 C26.43157066 37.65525819 25.9548003 40.11467203 25.47851562 42.57421875 C25.17216613 44.14589011 24.86553611 45.71750682 24.55859375 47.2890625 C24.34607216 48.38584824 24.34607216 48.38584824 24.1292572 49.50479126 C23.5567871 52.41208072 22.93829722 55.18510833 22 58 C20.35 57.67 18.7 57.34 17 57 C16.83539528 56.07371796 16.83539528 56.07371796 16.66746521 55.12872314 C15.51855999 48.69792878 14.32762292 42.2759429 13.11206055 35.85742188 C12.66406626 33.46163337 12.22679994 31.06381278 11.80053711 28.6640625 C11.18557181 25.21282864 10.53226923 21.77076541 9.87109375 18.328125 C9.68848495 17.25508118 9.50587616 16.18203735 9.31773376 15.07647705 C8.37868467 9.6864701 8.37868467 9.6864701 5.26077271 5.41149902 C3.15412615 4.13058145 3.15412615 4.13058145 0 3 C0 2.01 0 1.02 0 0 Z " transform="translate(871,252)" style="fill: #D8D8D8;"/><path d="M0 0 C7.59 0 15.18 0 23 0 C23 1.98 23 3.96 23 6 C22.14535156 5.98839844 21.29070313 5.97679687 20.41015625 5.96484375 C19.30542969 5.95582031 18.20070313 5.94679688 17.0625 5.9375 C15.40927734 5.92009766 15.40927734 5.92009766 13.72265625 5.90234375 C11.08552366 5.68737429 11.08552366 5.68737429 10 7 C9.95512088 8.85105071 9.95512088 8.85105071 10.12109375 11.03515625 C10.16943359 11.84404297 10.21777344 12.65292969 10.26757812 13.48632812 C10.32365234 14.33646484 10.37972656 15.18660156 10.4375 16.0625 C10.48970703 16.91650391 10.54191406 17.77050781 10.59570312 18.65039062 C10.72578761 20.76721995 10.86229971 22.88365244 11 25 C13.31 25 15.62 25 18 25 C18 26.65 18 28.3 18 30 C15.03 30 12.06 30 9 30 C9.33 30.99 9.66 31.98 10 33 C10.08021999 34.40824893 10.10765977 35.81997231 10.09765625 37.23046875 C10.09443359 38.03291016 10.09121094 38.83535156 10.08789062 39.66210938 C10.07532227 40.91217773 10.07532227 40.91217773 10.0625 42.1875 C10.05798828 43.03248047 10.05347656 43.87746094 10.04882812 44.74804688 C10.03705403 46.83206155 10.0191189 48.91603977 10 51 C16.93 51.495 16.93 51.495 24 52 C24 53.65 24 55.3 24 57 C16.08 57 8.16 57 0 57 C0 38.19 0 19.38 0 0 Z M4 13 C5.485 13.99 5.485 13.99 7 15 C7.33 14.34 7.66 13.68 8 13 C6.68 13 5.36 13 4 13 Z M1 14 C1.66 14.66 2.32 15.32 3 16 C3 15.34 3 14.68 3 14 C2.34 14 1.68 14 1 14 Z M4 16 C4.66 16.66 5.32 17.32 6 18 C6 17.34 6 16.68 6 16 C5.34 16 4.68 16 4 16 Z " transform="translate(981,252)" style="fill: #C9C9C9;"/><path d="M0 0 C8.25 0 16.5 0 25 0 C24.67 1.32 24.34 2.64 24 4 C22.02 4.66 20.04 5.32 18 6 C18 20.85 18 35.7 18 51 C20.31 51.99 22.62 52.98 25 54 C25 54.99 25 55.98 25 57 C16.75 57 8.5 57 0 57 C0.33 55.68 0.66 54.36 1 53 C2.98 52.34 4.96 51.68 7 51 C7 36.15 7 21.3 7 6 C4.69 5.01 2.38 4.02 0 3 C0 2.01 0 1.02 0 0 Z " transform="translate(795,252)" style="fill: #E3E3E3;"/><path d="M0 0 C1.12591553 0.00523682 2.25183105 0.01047363 3.41186523 0.01586914 C4.62680664 0.0190918 5.84174805 0.02231445 7.09350586 0.02563477 C8.37290039 0.03401367 9.65229492 0.04239258 10.97045898 0.05102539 C12.2537207 0.05553711 13.53698242 0.06004883 14.85913086 0.06469727 C18.04211921 0.07652994 21.22501661 0.09301471 24.40795898 0.11352539 C24.40795898 2.09352539 24.40795898 4.07352539 24.40795898 6.11352539 C23.08795898 6.11352539 21.76795898 6.11352539 20.40795898 6.11352539 C20.07795898 5.12352539 19.74795898 4.13352539 19.40795898 3.11352539 C19.40795898 4.10352539 19.40795898 5.09352539 19.40795898 6.11352539 C18.41795898 6.44352539 17.42795898 6.77352539 16.40795898 7.11352539 C16.07795898 20.64352539 15.74795898 34.17352539 15.40795898 48.11352539 C14.41795898 48.11352539 13.42795898 48.11352539 12.40795898 48.11352539 C12.40795898 48.77352539 12.40795898 49.43352539 12.40795898 50.11352539 C13.39795898 50.11352539 14.38795898 50.11352539 15.40795898 50.11352539 C15.40795898 52.42352539 15.40795898 54.73352539 15.40795898 57.11352539 C10.95295898 57.60852539 10.95295898 57.60852539 6.40795898 58.11352539 C6.38331049 52.72005551 6.36512368 47.32661814 6.35302734 41.93310547 C6.34798667 40.09683664 6.34115422 38.26057185 6.33251953 36.42431641 C6.32044226 33.79076138 6.31472817 31.15725923 6.31030273 28.52368164 C6.30514145 27.69763931 6.29998016 26.87159698 6.29466248 26.02052307 C6.29446694 24.05116172 6.34591747 22.08190926 6.40795898 20.11352539 C6.73795898 19.78352539 7.06795898 19.45352539 7.40795898 19.11352539 C6.74795898 19.11352539 6.08795898 19.11352539 5.40795898 19.11352539 C5.40795898 15.15352539 5.40795898 11.19352539 5.40795898 7.11352539 C2.76795898 6.78352539 0.12795898 6.45352539 -2.59204102 6.11352539 C-2.97422869 4.45737882 -3.30599203 2.78895515 -3.59204102 1.11352539 C-2.59204102 0.11352539 -2.59204102 0.11352539 0 0 Z M8.40795898 3.11352539 C8.40795898 3.77352539 8.40795898 4.43352539 8.40795898 5.11352539 C9.06795898 5.11352539 9.72795898 5.11352539 10.40795898 5.11352539 C10.40795898 4.45352539 10.40795898 3.79352539 10.40795898 3.11352539 C9.74795898 3.11352539 9.08795898 3.11352539 8.40795898 3.11352539 Z " transform="translate(595.592041015625,251.886474609375)" style="fill: #D3D3D3;"/><path d="M0 0 C3.0603333 1.7655769 5.50587755 3.50587755 8 6 C8.1953125 8.1640625 8.1953125 8.1640625 8.125 10.625 C8.10695313 11.44226563 8.08890625 12.25953125 8.0703125 13.1015625 C8.04710937 13.72804688 8.02390625 14.35453125 8 15 C7.34 15 6.68 15 6 15 C5.5875 14.071875 5.175 13.14375 4.75 12.1875 C2.61365366 8.29407863 2.61365366 8.29407863 -1 6 C-3.73398135 6.70957237 -3.73398135 6.70957237 -6 8 C-5.81535634 12.34184202 -5.81535634 12.34184202 -4 16 C-1 19.72 -1 19.72 -1 22 C0.32 22.66 1.64 23.32 3 24 C3 24.66 3 25.32 3 26 C3.66 26 4.32 26 5 26 C6.25390625 27.64453125 6.25390625 27.64453125 7.5625 29.8125 C8.21412109 30.87404297 8.21412109 30.87404297 8.87890625 31.95703125 C11.54230799 36.81054732 11.58231905 41.5995891 11 47 C9.75353621 50.90730878 8.51184719 54.13924028 4.859375 56.21875 C4.24578125 56.4765625 3.6321875 56.734375 3 57 C2.32390053 53.02791561 1.97649587 49.40486199 2.125 45.375 C2.16553056 41.39625026 1.54613672 39.1826709 -1 36 C-1.721875 35.278125 -2.44375 34.55625 -3.1875 33.8125 C-5 32 -5 32 -5 30 C-5.66 30 -6.32 30 -7 30 C-11.14102612 25.35370279 -13.87231636 20.46657567 -14.16796875 14.203125 C-13.77340834 9.02796054 -12.20336808 5.30093846 -8.6875 1.5 C-5.38187285 -0.3450012 -3.73535093 -0.60985321 0 0 Z M2 32 C2.33 32.66 2.66 33.32 3 34 C3.33 33.34 3.66 32.68 4 32 C3.34 32 2.68 32 2 32 Z M6 47 C6 47.66 6 48.32 6 49 C6.66 48.67 7.32 48.34 8 48 C7.34 47.67 6.68 47.34 6 47 Z " transform="translate(510,252)" style="fill: #C4C4C4;"/><path d="M0 0 C6.27 0 12.54 0 19 0 C20.32 2.64 21.64 5.28 23 8 C23.99 5.36 24.98 2.72 26 0 C27.65 0 29.3 0 31 0 C31 5.61 31 11.22 31 17 C29.68 17 28.36 17 27 17 C26.67 15.68 26.34 14.36 26 13 C25.34 14.32 24.68 15.64 24 17 C23.01 17 22.02 17 21 17 C20.34 15.35 19.68 13.7 19 12 C18.67 13.65 18.34 15.3 18 17 C16.68 17 15.36 17 14 17 C14 12.71 14 8.42 14 4 C12.35 4 10.7 4 9 4 C9 8.29 9 12.58 9 17 C7.68 17 6.36 17 5 17 C5 12.71 5 8.42 5 4 C3.35 4 1.7 4 0 4 C0 2.68 0 1.36 0 0 Z " transform="translate(1470,13)" style="fill: #A5A5A5;"/><path d="M0 0 C36.63 0.495 36.63 0.495 74 1 C74 1.99 74 2.98 74 4 C70.64547871 5.11817376 68.13581736 5.1202587 64.60083008 5.11352539 C63.63456947 5.11374443 63.63456947 5.11374443 62.64878845 5.1139679 C60.52233498 5.11327195 58.3959694 5.10549448 56.26953125 5.09765625 C54.79408313 5.09579094 53.31863439 5.09436757 51.84318542 5.09336853 C47.96174405 5.08955226 44.08034015 5.07972956 40.19891357 5.06866455 C36.23743192 5.05843131 32.27594419 5.05386681 28.31445312 5.04882812 C20.54295167 5.0381065 12.77148109 5.02104075 5 5 C5 4.34 5 3.68 5 3 C4.01 3 3.02 3 2 3 C1.67 3.99 1.34 4.98 1 6 C0.4465236 3.92446352 0 2.15634036 0 0 Z " transform="translate(1096,275)" style="fill: #B5B5B5;"/><path d="M0 0 C2.65366696 2.65366696 2.70020791 4.63458219 3.3125 8.3125 C3.51488281 9.44300781 3.71726562 10.57351563 3.92578125 11.73828125 C4.01174827 15.51630552 3.29433318 17.05014306 1 20 C-1 21 -1 21 -3 21 C-4.75 19.75 -4.75 19.75 -6 18 C-6 17.01 -6 16.02 -6 15 C-6.8971875 15.3403125 -6.8971875 15.3403125 -7.8125 15.6875 C-10 16 -10 16 -11.8125 14.9375 C-13 13 -13 13 -12.6875 9.8125 C-12.460625 8.884375 -12.23375 7.95625 -12 7 C-11.01 6.67 -10.02 6.34 -9 6 C-8.29618843 4.01276732 -7.6288189 2.01222047 -7 0 C-4.29393021 -1.35303489 -2.8671629 -0.7884698 0 0 Z " transform="translate(1444,259)" style="fill: #CECECE;"/><path d="M0 0 C0 1.32 0 2.64 0 4 C-3.36314444 5.0679179 -6.12956636 4.9736012 -9.625 4.625 C-10.58664062 4.53476562 -11.54828125 4.44453125 -12.5390625 4.3515625 C-15 4 -15 4 -17 3 C-17.33 3.66 -17.66 4.32 -18 5 C-19.916588 5.02712153 -21.8332873 5.04645097 -23.75 5.0625 C-25.35101563 5.07990234 -25.35101563 5.07990234 -26.984375 5.09765625 C-30 5 -30 5 -31.890625 4.5 C-34.25249998 3.94014815 -36.33975777 3.88679332 -38.765625 3.90234375 C-39.65507812 3.90556641 -40.54453125 3.90878906 -41.4609375 3.91210938 C-42.38132812 3.92048828 -43.30171875 3.92886719 -44.25 3.9375 C-45.65378906 3.94426758 -45.65378906 3.94426758 -47.0859375 3.95117188 C-49.39069041 3.96293082 -51.69531227 3.97936574 -54 4 C-54 3.34 -54 2.68 -54 2 C-53.01 2 -52.02 2 -51 2 C-51 1.34 -51 0.68 -51 0 C-50.08347656 0.01740234 -50.08347656 0.01740234 -49.1484375 0.03515625 C-43.12366839 0.09455538 -37.16031153 -0.07950714 -31.14550781 -0.40869141 C-20.66342609 -0.97778064 -10.45742453 -0.90150211 0 0 Z " transform="translate(407,276)" style="fill: #9A9A9A;"/><path d="M0 0 C1.4540625 0.0309375 1.4540625 0.0309375 2.9375 0.0625 C3.5975 1.3825 4.2575 2.7025 4.9375 4.0625 C4.2775 4.0625 3.6175 4.0625 2.9375 4.0625 C3.83085797 6.42035318 3.83085797 6.42035318 7 7.1875 C8.4540625 7.620625 8.4540625 7.620625 9.9375 8.0625 C10.75 10.125 10.75 10.125 10.9375 13.0625 C9.15272612 16.86414839 7.194277 19.56563467 3.25 21.125 C0.9375 21.0625 0.9375 21.0625 -1.0625 19.0625 C-0.67483695 15.47661676 0.52316252 12.36262079 1.9375 9.0625 C1.133125 8.918125 0.32875 8.77375 -0.5 8.625 C-3.0625 8.0625 -3.0625 8.0625 -4.0625 7.0625 C-4.1875 4.0625 -4.1875 4.0625 -4.0625 1.0625 C-3.0625 0.0625 -3.0625 0.0625 0 0 Z " transform="translate(1440.0625,234.9375)" style="fill: #BABABA;"/><path d="M0 0 C3 1 3 1 4.8125 4.5 C5.76425901 6.41174144 5.76425901 6.41174144 7 8 C9.86731838 8.86019551 12.04605379 9 15 9 C14.67 10.98 14.34 12.96 14 15 C11.03 14.67 8.06 14.34 5 14 C5 13.34 5 12.68 5 12 C4.360625 11.690625 3.72125 11.38125 3.0625 11.0625 C1 10 1 10 0 9 C-0.07179964 7.48071962 -0.08392007 5.95832518 -0.0625 4.4375 C-0.05347656 3.61121094 -0.04445313 2.78492188 -0.03515625 1.93359375 C-0.02355469 1.29550781 -0.01195312 0.65742188 0 0 Z " transform="translate(497,295)" style="fill: #B6B6B6;"/><path d="M0 0 C6.27 0 12.54 0 19 0 C18.67 0.99 18.34 1.98 18 3 C14.38132441 4.2062252 11.07493749 4.10816918 7.3125 4.0625 C6.61060547 4.05798828 5.90871094 4.05347656 5.18554688 4.04882812 C3.45699462 4.03706927 1.72848635 4.01913454 0 4 C0 2.68 0 1.36 0 0 Z " transform="translate(333,276)" style="fill: #6C6C6C;"/><path d="M0 0 C1 1 1 1 1.125 3.5 C1 6 1 6 0 7 C-2.4375 7.1875 -2.4375 7.1875 -5 7 C-5.66 6.34 -6.32 5.68 -7 5 C-6.75 2.4375 -6.75 2.4375 -6 0 C-3.49749232 -1.25125384 -2.59701335 -0.83774624 0 0 Z " transform="translate(826,194)" style="fill: #C7C7C7;"/><path d="M0 0 C2.475 0.99 2.475 0.99 5 2 C5 3.65 5 5.3 5 7 C3.02 7.99 3.02 7.99 1 9 C-0.32 8.01 -1.64 7.02 -3 6 C-2.42655063 3.13275314 -2.1385485 2.1385485 0 0 Z " transform="translate(1466,245)" style="fill: #BABABA;"/><path d="M0 0 C2.75 0.8125 2.75 0.8125 5 2 C4.34 3.98 3.68 5.96 3 8 C1.02 8 -0.96 8 -3 8 C-3.33 6.35 -3.66 4.7 -4 3 C-2.3125 1.375 -2.3125 1.375 0 0 Z " transform="translate(1451,226)" style="fill: #C0C0C0;"/></svg>