<svg width="585" height="89" viewBox="0 0 585 89" fill="none" xmlns="http://www.w3.org/2000/svg">
<g clip-path="url(#clip0_547_205)">
<path fill-rule="evenodd" clip-rule="evenodd" d="M543.8 0.29999C544.2 0.49999 547.8 2.59999 551.8 4.89999C555.7 7.09999 559.3 8.89999 559.8 8.79999C560.2 8.69999 562.1 9.29999 564 10.3C565.9 11.2 569.5 12.4 572 12.9C574.5 13.4 577.3 14 578.3 14.4C579.2 14.7 580 14.6 580 14C580 13.4 581.1 13 582.5 13C584.3 13 585 13.5 585 15C585 16.1 584.6 17 584 17C583.4 17 583.2 18.7 583.5 21C583.8 23.2 583.6 25.2 583 25.5C582.5 25.8 582.1 26.6 582.3 27.3C582.4 27.9 582.9 29.1 583.3 29.8C583.7 30.4 583.7 33.6 583.3 36.8C582.9 39.9 582.6 43.1 582.8 43.8C582.9 44.5 581.9 45 580 45C578.4 45 577 44.5 577 44C577 43.5 576.2 43 575.3 43C574.3 42.9 573 42.3 572.5 41.4C572 40.6 565 36.3 542.5 23.4L542.3 13C542.1 7.29999 542.3 1.99999 542.6 1.29999C542.9 0.49999 543.4 0.0999902 543.8 0.29999ZM535.6 3.69999C536.467 4.03332 536.933 6.09999 537 9.89999C537 13 537.1 31.1 537.3 50.2C537.4 77.3 537.2 85.1 536.3 85.5C535.6 85.8 534.7 85.5 534.3 84.8C533.8 84.1 530.6 82.3 527 80.6C523.4 79 519.8 77.1 519 76.3C518 75.3 516.3 75 513.8 75.4C510.8 75.9 510 75.7 510 74.5C510 73.6 509.3 73.1 508.3 73.3C507.3 73.5 506.3 74.8 506 76.1C505.7 77.4 505 79.4 504.3 80.5C503.3 82.2 502.7 82.3 500.3 81.5C498 80.6 497.5 79.9 497.5 77.1C497.5 74.5 498 73.5 500 72.7C501.4 72.1 502.7 71.4 503 71.2C503.3 71 503 70.6 502.5 70.2C502 69.8 500.7 67.9 499.7 66C497.8 62.5 497.8 62.5 500.3 60.5C501.8 59.2 502.9 56.9 503.4 54C503.9 51.2 503.8 49.3 503.1 49C502.5 48.7 502.4 47.1 503 44.5C503.5 42.3 504 38.4 504 35.8C504 33.1 503.5 30.1 503 29C502.333 27.6667 502.333 26.8333 503 26.5C503.5 26.2 503.8 25.3 503.5 24.5C503.2 23.7 503.9 22.4 505 21.8C506.1 21.1 506.8 20.3 506.6 20C506.4 19.7 506.7 19.5 507.3 19.4C508 19.4 511.1 17.8 514.4 15.9C517.6 14 521.6 11.7 523.4 10.7C525.1 9.69999 527 8.29999 527.5 7.59999C528 6.89999 529.8 5.59999 531.4 4.79999C532.9 3.89999 534.8 3.39999 535.6 3.69999ZM8.8 16.6C9.4 16.8 15.4 17 34 17V36H22V32.5C22 29.2 21.8 29 18.5 29C16 29 14.7 29.6 14 31C13.4 32.1 13 34.8 13 41H19.7C26.4 40.9 26.6 41 30.2 45C33.1 48 33.8 49.4 33 50.5C32.3333 51.5 32.3333 52.1667 33 52.5C33.5 52.8 34 56.5 34 68.5L25.5 77H8.5L4.2 72.7C0.3 68.8 0 68.1 0 58H13V61.5C13 65 13 65 22 65L21.5 53.5L15 53.2C8.9 52.9 8.3 52.7 0 44.5V35.5C0 28.2 0.4 25.6 2.2 21.8C3.5 19.2 5.2 16.9 6 16.7C6.8 16.4 8.1 16.4 8.7 16.6H8.8ZM52.4 17.1C59.7 17 67.1 17.2 68.8 17.5C72.1 18 72.1 18.1 72.1 29H61.1V77H49.1V29H38.1L37.9 23.7C37.8 20.7 38.1 18.1 38.5 17.8C38.9 17.5 45.1 17.2 52.4 17.1ZM76.1 17L101.6 17.1L110 25.5V37C110.1 47.2 109.8 48.7 108.1 50.5C106.1 52.5 106.1 52.7 107.6 63C108.5 68.8 109.4 74.3 109.7 75.3C110 76.8 109.3 77 97.1 77L96.5 72.3C96.1 69.6 95.3 64.4 94.7 60.5C93.6 54 93.4 53.5 88.6 53.5L88.1 77H76.1V17ZM88.1 41H97.1V29H88.1V41ZM147.1 17V29H127.1V41H143.1V53H127.1V65H147.1V77H114.1L113.9 47.7C113.8 31.5 114.1 18 114.6 17.7C115.1 17.3 122.6 17 147.1 17ZM152.1 17H166.8C177.2 17 182.1 17.3 183.4 18.2C184.8 19.2 185.1 20.6 184.6 28.5L164.1 29V41H180.1V53L164.6 53.5L164.1 65L184.6 65.5V76.5L152.1 77V17ZM222.1 17V29H217.1C213.2 29 212 29.4 211.6 30.8C211.3 31.7 211.3 42.5 212.1 77H200.6L199.9 73.3C199.5 71.2 199.1 60.4 199.1 29L188.6 28.5L188.3 24C188.1 21.5 188.2 18.9 188.5 18.3C188.9 17.3 193.3 17 222.1 17ZM242.1 17H254.3C266.5 16.9 266.6 17 267.8 19.5C268.5 20.9 269.1 23.6 269.1 29H255.1V41H262.6C269.7 41 270.1 41.1 270.2 43.3C270.3 44.5 270.4 47.1 270.6 52.5L255.1 53V77H242.1V17ZM275.1 17H288.1V77H275.1V17ZM301.1 17H313.4C320.1 17 325.8 17.1 326.1 17.4C326.4 17.6 326.4 21.8 325.6 35.3H320.1C314.7 35.3 314.6 35.2 314.3 32.1C314.1 29.1 313.9 29 305.1 29V65H314.1V59C314.1 53.7 313.9 53 312.1 53C310.3 53 310.1 52.3 310.1 41H317.6C323.4 41 325.2 41.3 325.6 42.5C325.9 43.3 326.1 49.5 326.1 68.5L317.6 77H301.6L293.1 68.5V24.2L301.1 17ZM331.1 17H344.1V41H352.1V17H364.1V77H352.1L351.6 53.5L344.1 53V77H338.1C333.6 77 332 76.6 331.6 75.5C331.3 74.7 331.1 61.2 331.1 45.5V17ZM368.1 17H400.1L400.6 20.5C400.9 22.5 400.9 25.2 400.6 26.5C400.1 28.8 399.6 29 391.1 29V77H379.1V29H368.1V17ZM438.1 17V29H418.1V41H434.1V53H418.1V65H438.1V69.5C438.1 72 437.9 74.7 437.6 75.5C437.2 76.8 434.5 77 406.1 77L406.2 47.8C406.3 31.7 406.6 18.2 406.8 17.8C407 17.4 414.1 17 438.1 17ZM443.1 17L468.6 17.1L477.1 25.5V37.3C477.1 47.7 476.9 49.3 475.1 51C473.767 52.3333 473.3 53.7667 473.7 55.3C474 56.5 474.6 58.4 475.1 59.5C475.6 60.6 476.7 63.7 477.5 66.3C478.4 68.9 479.1 71.8 479.1 72.8C479.2 73.7 478.6 75.1 477.9 75.8C477.1 76.6 474.4 76.9 464.6 76.5L462.6 64.8C460.7 53.8 460.4 53 458.3 53C456.1 53 456.1 53.3 456.1 77H443.1V17ZM456.1 41H464.1L464.6 29H456.1V41ZM545.5 30.3C546.6 31.1 555.2 36 581.6 51L582.2 57.2C582.5 60.7 582.6 64.8 582.4 66.3C582.2 67.8 581.6 68.8 581.1 68.5C580.5 68.3 580.1 68.7 580.1 69.5C580.1 70.4 579.6 70.8 579.1 70.5C578.5 70.3 576.6 70.6 574.8 71.4C573.1 72.1 569.9 74.4 567.8 76.4C565.8 78.4 563.5 79.8 562.8 79.5C562.2 79.2 557.5 81.2 552.6 83.9C547.6 86.6 543.2 88.6 542.8 88.2C542.4 87.8 542.2 82.6 542.6 65.6L547.9 62.6C550.8 60.9 553.1 59.3 553.1 59C553.1 58.8 550.6 57.2 542 52.5V47C541.9 44 542 39.1 542 36.1C542.1 33 542.4 30.2 542.8 29.7C543.1 29.3 544.3 29.5 545.5 30.3Z" fill="#EBEBEB"/>
<path d="M482.216 18.4545V17.1818H487.273V18.4545H485.523V23H483.966V18.4545H482.216ZM487.867 17.1818H489.833L491.185 20.4773H491.254L492.606 17.1818H494.572V23H493.026V19.6364H492.981L491.685 22.9545H490.754L489.458 19.6136H489.413V23H487.867V17.1818Z" fill="#EBEBEB"/>
</g>
<defs>
<clipPath id="clip0_547_205">
<rect width="585" height="89" fill="white"/>
</clipPath>
</defs>
</svg>
