<?xml version="1.0" encoding="UTF-8" standalone="no"?>
<!DOCTYPE svg PUBLIC "-//W3C//DTD SVG 1.1//EN" "http://www.w3.org/Graphics/SVG/1.1/DTD/svg11.dtd">
<svg width="100%" height="100%" viewBox="0 0 213 203" version="1.1" xmlns="http://www.w3.org/2000/svg" xmlns:xlink="http://www.w3.org/1999/xlink" xml:space="preserve" xmlns:serif="http://www.serif.com/" style="fill-rule:evenodd;clip-rule:evenodd;stroke-linejoin:round;stroke-miterlimit:2;">
    <rect id="Page-3" serif:id="Page 3" x="0" y="0" width="212.891" height="202.133" style="fill:none;"/>
    <g id="Page-31" serif:id="Page 3">
        <g id="svg1599">
            <g transform="matrix(1,0,0,1,56.532,141.54)">
                <path d="M0,-15.713L-6.655,0L-9.008,0L-15.663,-15.713L-12.784,-15.713L-7.832,-3.928C-7.006,-5.877 -6.181,-7.846 -5.355,-9.836C-4.509,-11.847 -3.684,-13.806 -2.879,-15.713L0,-15.713Z" style="fill:white;fill-rule:nonzero;"/>
            </g>
            <g transform="matrix(1,0,0,1,0,57.944)">
                <path d="M58.493,60.593L61.155,60.593L61.155,64.239L58.493,64.239L58.493,60.593ZM58.493,67.883L61.155,67.883L61.155,83.596L58.493,83.596L58.493,67.883Z" style="fill:white;fill-rule:nonzero;"/>
            </g>
            <g transform="matrix(1,0,0,1,66.4168,125.482)">
                <path d="M0,16.059L-2.662,16.059L-2.662,8.203C-2.662,7.071 -2.436,6.002 -1.981,4.997C-1.527,3.991 -0.908,3.122 -0.124,2.389C0.66,1.655 1.568,1.079 2.6,0.66C3.652,0.22 4.777,0 5.974,0L5.974,2.703C5.148,2.703 4.374,2.85 3.652,3.142C2.93,3.415 2.29,3.803 1.733,4.306C1.196,4.808 0.773,5.395 0.464,6.065C0.154,6.736 0,7.448 0,8.203L0,16.059Z" style="fill:white;fill-rule:nonzero;"/>
            </g>
            <g transform="matrix(1,0,0,1,75.032,141.76)">
                <path d="M0,-19.704L2.662,-19.704L2.662,-15.87L8.079,-15.87L8.079,-13.199L2.662,-13.199L2.662,-4.368C2.662,-3.907 2.816,-3.509 3.126,-3.174C3.456,-2.86 3.858,-2.703 4.333,-2.703C4.808,-2.703 5.2,-2.922 5.51,-3.362C5.84,-3.802 6.005,-4.336 6.005,-4.965L8.636,-4.965C8.636,-4.274 8.522,-3.624 8.296,-3.016C8.068,-2.43 7.759,-1.906 7.367,-1.445C6.995,-1.005 6.542,-0.649 6.005,-0.377C5.489,-0.125 4.932,0 4.333,0C3.735,0 3.167,-0.115 2.631,-0.346C2.115,-0.576 1.661,-0.89 1.269,-1.288C0.877,-1.686 0.567,-2.147 0.34,-2.671C0.113,-3.195 0,-3.761 0,-4.368L0,-19.704Z" style="fill:white;fill-rule:nonzero;"/>
            </g>
            <g transform="matrix(1,0,0,1,92.0106,125.797)">
                <path d="M0,16.027C-0.866,16.027 -1.682,15.86 -2.445,15.524C-3.188,15.189 -3.838,14.738 -4.396,14.173C-4.952,13.607 -5.396,12.947 -5.727,12.193C-6.036,11.418 -6.19,10.601 -6.19,9.742L-6.19,0L-3.56,0L-3.56,9.742C-3.56,10.245 -3.467,10.716 -3.281,11.156C-3.095,11.596 -2.848,11.984 -2.538,12.319C-2.208,12.633 -1.826,12.884 -1.393,13.073C-0.959,13.261 -0.495,13.356 0,13.356C0.495,13.356 0.949,13.261 1.362,13.073C1.796,12.884 2.167,12.633 2.477,12.319C2.807,11.984 3.064,11.596 3.25,11.156C3.437,10.716 3.529,10.245 3.529,9.742L3.529,0L6.191,0L6.191,9.742C6.191,10.601 6.026,11.418 5.696,12.193C5.365,12.947 4.922,13.607 4.365,14.173C3.808,14.738 3.147,15.189 2.384,15.524C1.641,15.86 0.847,16.027 0,16.027" style="fill:white;fill-rule:nonzero;"/>
            </g>
            <g transform="matrix(1,0,0,1,108.889,139.12)">
                <path d="M0,-10.967C-0.743,-10.967 -1.444,-10.821 -2.104,-10.527C-2.765,-10.255 -3.343,-9.867 -3.838,-9.364C-4.312,-8.862 -4.694,-8.275 -4.983,-7.604C-5.272,-6.934 -5.417,-6.221 -5.417,-5.467C-5.417,-4.713 -5.272,-4.001 -4.983,-3.33C-4.694,-2.66 -4.312,-2.073 -3.838,-1.571C-3.343,-1.089 -2.765,-0.701 -2.104,-0.408C-1.444,-0.114 -0.743,0.032 0,0.032C0.764,0.032 1.476,-0.114 2.136,-0.408C2.796,-0.701 3.364,-1.089 3.839,-1.571C4.334,-2.073 4.716,-2.66 4.983,-3.33C5.272,-4.001 5.417,-4.713 5.417,-5.467C5.417,-6.221 5.272,-6.934 4.983,-7.604C4.716,-8.275 4.334,-8.862 3.839,-9.364C3.364,-9.867 2.796,-10.255 2.136,-10.527C1.476,-10.821 0.764,-10.967 0,-10.967M0,-13.67C1.114,-13.67 2.167,-13.449 3.157,-13.009C4.148,-12.591 5.005,-12.004 5.727,-11.25C6.47,-10.516 7.048,-9.647 7.46,-8.641C7.894,-7.657 8.11,-6.599 8.11,-5.467L8.11,2.389L5.417,2.389L5.417,0.629C4.695,1.279 3.869,1.792 2.94,2.169C2.033,2.525 1.053,2.703 0,2.703C-1.114,2.703 -2.156,2.494 -3.126,2.075C-4.096,1.635 -4.952,1.048 -5.695,0.315C-6.418,-0.418 -6.995,-1.277 -7.429,-2.262C-7.842,-3.268 -8.048,-4.336 -8.048,-5.467C-8.048,-6.599 -7.842,-7.657 -7.429,-8.641C-6.995,-9.647 -6.418,-10.516 -5.695,-11.25C-4.952,-12.004 -4.096,-12.591 -3.126,-13.009C-2.156,-13.449 -1.114,-13.67 0,-13.67" style="fill:white;fill-rule:nonzero;"/>
            </g>
            <g transform="matrix(1,0,0,1,119.918,141.855)">
                <path d="M0,-23.318L2.632,-23.318L2.632,-4.4C2.632,-3.918 2.848,-3.509 3.281,-3.174C3.735,-2.839 4.272,-2.671 4.891,-2.671L4.891,0C4.21,0 3.57,-0.115 2.972,-0.346C2.395,-0.576 1.878,-0.89 1.424,-1.288C0.991,-1.687 0.64,-2.148 0.372,-2.671C0.124,-3.216 0,-3.792 0,-4.4L0,-23.318Z" style="fill:white;fill-rule:nonzero;"/>
            </g>
            <g transform="matrix(1,0,0,1,133.621,125.545)">
                <path d="M0,16.373C-1.114,16.373 -2.167,16.164 -3.157,15.745C-4.127,15.305 -4.983,14.718 -5.727,13.985C-6.448,13.23 -7.026,12.361 -7.46,11.376C-7.872,10.392 -8.079,9.333 -8.079,8.202C-8.079,7.071 -7.872,6.002 -7.46,4.997C-7.026,3.991 -6.448,3.122 -5.727,2.389C-4.983,1.655 -4.127,1.079 -3.157,0.66C-2.167,0.22 -1.114,0 0,0C1.114,0 2.156,0.22 3.127,0.66C4.117,1.079 4.974,1.655 5.696,2.389C6.418,3.122 6.985,3.991 7.398,4.997C7.832,6.002 8.049,7.071 8.049,8.202L8.049,8.674C8.049,8.841 8.027,9.124 7.986,9.522L-5.231,9.522C-5.087,10.13 -4.85,10.685 -4.52,11.187C-4.188,11.69 -3.797,12.13 -3.343,12.508C-2.889,12.885 -2.383,13.178 -1.826,13.388C-1.248,13.597 -0.64,13.702 0,13.702C0.495,13.702 0.991,13.576 1.486,13.325C1.981,13.052 2.456,12.696 2.91,12.256L4.768,14.142C4.086,14.812 3.333,15.357 2.508,15.776C1.703,16.174 0.867,16.373 0,16.373M5.231,6.851C5.066,6.264 4.818,5.72 4.488,5.217C4.179,4.693 3.797,4.253 3.344,3.897C2.89,3.52 2.373,3.227 1.796,3.017C1.238,2.808 0.64,2.703 0,2.703C-0.64,2.703 -1.248,2.808 -1.826,3.017C-2.383,3.227 -2.889,3.52 -3.343,3.897C-3.797,4.253 -4.188,4.693 -4.52,5.217C-4.85,5.72 -5.087,6.264 -5.231,6.851L5.231,6.851Z" style="fill:white;fill-rule:nonzero;"/>
            </g>
            <g transform="matrix(1,0,0,1,144.74,141.76)">
                <path d="M0,-19.704L2.661,-19.704L2.661,-15.87L8.078,-15.87L8.078,-13.199L2.661,-13.199L2.661,-4.368C2.661,-3.907 2.816,-3.509 3.126,-3.174C3.456,-2.86 3.858,-2.703 4.333,-2.703C4.808,-2.703 5.2,-2.922 5.51,-3.362C5.84,-3.802 6.005,-4.336 6.005,-4.965L8.636,-4.965C8.636,-4.274 8.522,-3.624 8.295,-3.016C8.068,-2.43 7.759,-1.906 7.366,-1.445C6.995,-1.005 6.541,-0.649 6.005,-0.377C5.488,-0.125 4.932,0 4.333,0C3.734,0 3.167,-0.115 2.631,-0.346C2.114,-0.576 1.661,-0.89 1.269,-1.288C0.877,-1.686 0.567,-2.147 0.34,-2.671C0.113,-3.195 -0.001,-3.761 -0.001,-4.368L0,-19.704Z" style="fill:white;fill-rule:nonzero;"/>
            </g>
            <g transform="matrix(1,0,0,1,0,57.944)">
                <path d="M155.527,60.593L158.189,60.593L158.189,64.239L155.527,64.239L155.527,60.593ZM155.527,67.883L158.189,67.883L158.189,83.596L155.527,83.596L155.527,67.883Z" style="fill:white;fill-rule:nonzero;"/>
            </g>
            <g transform="matrix(1,0,0,1,159.644,125.828)">
                <path d="M0,15.713L4.52,7.857C4.169,7.27 3.797,6.641 3.405,5.971C3.034,5.279 2.642,4.588 2.229,3.897C1.837,3.205 1.444,2.525 1.053,1.854C0.682,1.184 0.33,0.566 0,0L3.033,0L6.005,5.185C6.479,4.347 6.976,3.478 7.491,2.577C8.007,1.655 8.492,0.796 8.946,0L11.948,0L7.522,7.857C7.853,8.464 8.203,9.103 8.574,9.774C8.967,10.444 9.358,11.125 9.751,11.816C10.143,12.507 10.524,13.188 10.896,13.859C11.268,14.529 11.618,15.147 11.948,15.713L8.946,15.713L6.005,10.527C5.53,11.365 5.025,12.246 4.488,13.167C3.973,14.068 3.487,14.917 3.034,15.713L0,15.713Z" style="fill:white;fill-rule:nonzero;"/>
            </g>
        </g>
        <g id="Isolationsmodus">
            <g transform="matrix(-0.686746,0.726897,0.726897,0.686746,58.4039,62.1218)">
                <path d="M-32.894,38.882L-11.824,38.882L-27.889,-24.694L-42.43,-9.119L-32.894,38.882Z" style="fill:white;fill-rule:nonzero;"/>
            </g>
            <g transform="matrix(-0.999996,-0.00291884,-0.00291884,0.999996,110.712,84.3806)">
                <path d="M-28.608,22.663L-1.2,22.663L-0.028,20.836L-12.409,0.005L-28.608,22.663Z" style="fill:white;fill-rule:nonzero;"/>
            </g>
            <g transform="matrix(1,0,0,1,153.284,107.047)">
                <path d="M0,-82.031L-31.729,-29.014L-46.646,-4.091L-49.095,0L-77.995,0L-57.506,-21.17L-57.476,-21.12L-57.068,-21.618L-57.057,-21.633L0,-82.031Z" style="fill:white;fill-rule:nonzero;"/>
            </g>
        </g>
    </g>
</svg>
